<?xml version="1.0" encoding="UTF-8"?>
<svg width="700pt" height="700pt" version="1.1" viewBox="0 0 700 700" xmlns="http://www.w3.org/2000/svg" xmlns:xlink="http://www.w3.org/1999/xlink">
 <defs>
  <symbol id="t" overflow="visible">
   <path d="m4.4062-0.26562c-0.23047 0.11719-0.46875 0.20312-0.71875 0.26562-0.24219 0.0625-0.49609 0.09375-0.76562 0.09375-0.79297 0-1.4219-0.22266-1.8906-0.67188-0.46875-0.44531-0.70312-1.0508-0.70312-1.8125 0-0.76953 0.23438-1.375 0.70312-1.8125 0.46875-0.44531 1.0977-0.67188 1.8906-0.67188 0.26953 0 0.52344 0.03125 0.76562 0.09375 0.25 0.054688 0.48828 0.13672 0.71875 0.25v1c-0.23047-0.15625-0.46094-0.26953-0.6875-0.34375-0.21875-0.070312-0.44922-0.10938-0.6875-0.10938-0.44922 0-0.79688 0.14062-1.0469 0.42188s-0.375 0.67188-0.375 1.1719c0 0.49219 0.125 0.88281 0.375 1.1719 0.25 0.28125 0.59766 0.42188 1.0469 0.42188 0.23828 0 0.46875-0.035156 0.6875-0.10938 0.22656-0.070312 0.45703-0.1875 0.6875-0.34375z"/>
  </symbol>
  <symbol id="a" overflow="visible">
   <path d="m3.2188-2.625c-0.09375-0.039062-0.19531-0.070312-0.29688-0.09375-0.09375-0.019531-0.19531-0.03125-0.29688-0.03125-0.29297 0-0.52344 0.09375-0.6875 0.28125-0.15625 0.1875-0.23438 0.46094-0.23438 0.8125v1.6562h-1.1562v-3.5938h1.1562v0.59375c0.14453-0.23828 0.3125-0.41016 0.5-0.51562 0.19531-0.11328 0.42969-0.17188 0.70312-0.17188 0.03125 0 0.066406 0.007812 0.10938 0.015625 0.050781 0 0.11719 0.007813 0.20312 0.015625z"/>
  </symbol>
  <symbol id="c" overflow="visible">
   <path d="m4.1406-1.8125v0.32812h-2.6875c0.03125 0.27344 0.12891 0.47656 0.29688 0.60938 0.16406 0.13672 0.39844 0.20312 0.70312 0.20312 0.23828 0 0.48438-0.035156 0.73438-0.10938 0.25781-0.070312 0.51953-0.17969 0.78125-0.32812v0.89062c-0.27344 0.10547-0.54297 0.18359-0.8125 0.23438-0.27344 0.050781-0.54297 0.078125-0.8125 0.078125-0.65625 0-1.168-0.16406-1.5312-0.5-0.35547-0.33203-0.53125-0.79688-0.53125-1.3906 0-0.58203 0.17578-1.0391 0.53125-1.375 0.35156-0.34375 0.84375-0.51562 1.4688-0.51562 0.5625 0 1.0078 0.17188 1.3438 0.51562 0.34375 0.34375 0.51562 0.79688 0.51562 1.3594zm-1.1719-0.375c0-0.21875-0.070312-0.39453-0.20312-0.53125-0.125-0.13281-0.29297-0.20312-0.5-0.20312-0.21875 0-0.40234 0.0625-0.54688 0.1875-0.13672 0.125-0.21875 0.30859-0.25 0.54688z"/>
  </symbol>
  <symbol id="e" overflow="visible">
   <path d="m2.1719-1.625c-0.24219 0-0.42188 0.042969-0.54688 0.125-0.125 0.085938-0.1875 0.20312-0.1875 0.35938 0 0.14844 0.046875 0.26172 0.14062 0.34375 0.10156 0.085937 0.24219 0.125 0.42188 0.125 0.20703 0 0.38281-0.078125 0.53125-0.23438 0.15625-0.15625 0.23438-0.34766 0.23438-0.57812v-0.14062zm1.75-0.42188v2.0469h-1.1562v-0.53125c-0.15625 0.21875-0.33594 0.38281-0.53125 0.48438-0.1875 0.09375-0.42188 0.14062-0.70312 0.14062-0.36719 0-0.66797-0.10938-0.90625-0.32812-0.23047-0.21875-0.34375-0.5-0.34375-0.84375 0-0.42578 0.14453-0.73438 0.4375-0.92188 0.28906-0.19531 0.74219-0.29688 1.3594-0.29688h0.6875v-0.09375c0-0.1875-0.074219-0.32031-0.21875-0.40625-0.14844-0.082031-0.37109-0.125-0.67188-0.125-0.25 0-0.48047 0.027344-0.6875 0.078125-0.21094 0.054688-0.40625 0.125-0.59375 0.21875v-0.875c0.25-0.0625 0.5-0.10938 0.75-0.14062s0.49219-0.046875 0.73438-0.046875c0.65625 0 1.125 0.13281 1.4062 0.39062 0.28906 0.25 0.4375 0.66797 0.4375 1.25z"/>
  </symbol>
  <symbol id="d" overflow="visible">
   <path d="m1.8125-4.625v1.0312h1.1875v0.8125h-1.1875v1.5312c0 0.16797 0.03125 0.28125 0.09375 0.34375 0.0625 0.054688 0.19141 0.078125 0.39062 0.078125h0.59375v0.82812h-0.98438c-0.44922 0-0.77344-0.09375-0.96875-0.28125-0.1875-0.1875-0.28125-0.50781-0.28125-0.96875v-1.5312h-0.5625v-0.8125h0.5625v-1.0312z"/>
  </symbol>
  <symbol id="m" overflow="visible">
   <path d="m3-3.0781v-1.9219h1.1562v5h-1.1562v-0.51562c-0.15625 0.21094-0.33594 0.36719-0.53125 0.46875-0.1875 0.09375-0.40625 0.14062-0.65625 0.14062-0.4375 0-0.80469-0.17578-1.0938-0.53125-0.28125-0.35156-0.42188-0.80469-0.42188-1.3594 0-0.55078 0.14062-1.0039 0.42188-1.3594 0.28906-0.35156 0.65625-0.53125 1.0938-0.53125 0.25 0 0.46875 0.054688 0.65625 0.15625 0.19531 0.09375 0.375 0.24609 0.53125 0.45312zm-0.76562 2.3438c0.25 0 0.4375-0.085937 0.5625-0.26562 0.13281-0.1875 0.20312-0.45312 0.20312-0.79688s-0.070312-0.60156-0.20312-0.78125c-0.125-0.17578-0.3125-0.26562-0.5625-0.26562-0.24219 0-0.42969 0.089844-0.5625 0.26562-0.125 0.17969-0.1875 0.4375-0.1875 0.78125s0.0625 0.60938 0.1875 0.79688c0.13281 0.17969 0.32031 0.26562 0.5625 0.26562z"/>
  </symbol>
  <symbol id="l" overflow="visible">
   <path d="m2.4688-0.73438c0.25 0 0.4375-0.085937 0.5625-0.26562 0.125-0.1875 0.1875-0.45312 0.1875-0.79688s-0.0625-0.60156-0.1875-0.78125c-0.125-0.17578-0.3125-0.26562-0.5625-0.26562s-0.44531 0.089844-0.57812 0.26562c-0.125 0.17969-0.1875 0.4375-0.1875 0.78125s0.0625 0.60938 0.1875 0.79688c0.13281 0.17969 0.32812 0.26562 0.57812 0.26562zm-0.76562-2.3438c0.15625-0.20703 0.32812-0.35938 0.51562-0.45312 0.19531-0.10156 0.42188-0.15625 0.67188-0.15625 0.44531 0 0.8125 0.17969 1.0938 0.53125 0.28125 0.35547 0.42188 0.80859 0.42188 1.3594 0 0.55469-0.14062 1.0078-0.42188 1.3594-0.28125 0.35547-0.64844 0.53125-1.0938 0.53125-0.25 0-0.47656-0.046875-0.67188-0.14062-0.1875-0.10156-0.35938-0.25781-0.51562-0.46875v0.51562h-1.1562v-5h1.1562z"/>
  </symbol>
  <symbol id="k" overflow="visible">
   <path d="m0.078125-3.5938h1.1562l0.96875 2.4375 0.8125-2.4375h1.1562l-1.5156 3.9375c-0.15625 0.39453-0.33594 0.67188-0.53125 0.82812-0.19922 0.16406-0.46484 0.25-0.79688 0.25h-0.67188v-0.75h0.35938c0.19531 0 0.33594-0.03125 0.42188-0.09375 0.09375-0.0625 0.16406-0.17969 0.21875-0.34375l0.03125-0.09375z"/>
  </symbol>
  <symbol id="j" overflow="visible">
   <path d="m0.60938-4.7969h1.2344v4.3281c0 0.60156-0.16406 1.0508-0.48438 1.3438-0.32422 0.28906-0.82031 0.4375-1.4844 0.4375h-0.25v-0.9375h0.20312c0.25 0 0.44141-0.074219 0.57812-0.21875 0.13281-0.13672 0.20312-0.34375 0.20312-0.625z"/>
  </symbol>
  <symbol id="b" overflow="visible">
   <path d="m2.2656-2.8594c-0.26172 0-0.46094 0.09375-0.59375 0.28125-0.125 0.17969-0.1875 0.4375-0.1875 0.78125s0.0625 0.60938 0.1875 0.79688c0.13281 0.17969 0.33203 0.26562 0.59375 0.26562 0.25 0 0.4375-0.085937 0.5625-0.26562 0.13281-0.1875 0.20312-0.45312 0.20312-0.79688s-0.070312-0.60156-0.20312-0.78125c-0.125-0.1875-0.3125-0.28125-0.5625-0.28125zm0-0.82812c0.61328 0 1.0938 0.16797 1.4375 0.5 0.35156 0.33594 0.53125 0.79688 0.53125 1.3906s-0.17969 1.0586-0.53125 1.3906c-0.34375 0.33594-0.82422 0.5-1.4375 0.5-0.625 0-1.1172-0.16406-1.4688-0.5-0.34375-0.33203-0.51562-0.79688-0.51562-1.3906s0.17188-1.0547 0.51562-1.3906c0.35156-0.33203 0.84375-0.5 1.4688-0.5z"/>
  </symbol>
  <symbol id="i" overflow="visible">
   <path d="m4.1719-2.1875v2.1875h-1.1562v-1.6719c0-0.3125-0.011719-0.52344-0.03125-0.64062-0.011719-0.125-0.03125-0.21094-0.0625-0.26562-0.042969-0.070313-0.10547-0.12891-0.1875-0.17188-0.074219-0.039062-0.16406-0.0625-0.26562-0.0625-0.24219 0-0.42969 0.09375-0.5625 0.28125-0.13672 0.17969-0.20312 0.43359-0.20312 0.76562v1.7656h-1.1562v-5h1.1562v1.9219c0.17578-0.20703 0.35938-0.35938 0.54688-0.45312 0.19531-0.10156 0.41406-0.15625 0.65625-0.15625 0.41406 0 0.72656 0.13281 0.9375 0.39062 0.21875 0.25 0.32812 0.62109 0.32812 1.1094z"/>
  </symbol>
  <symbol id="h" overflow="visible">
   <path d="m4.1719-2.1875v2.1875h-1.1562v-1.6719c0-0.3125-0.011719-0.52344-0.03125-0.64062-0.011719-0.125-0.03125-0.21094-0.0625-0.26562-0.042969-0.070313-0.10547-0.12891-0.1875-0.17188-0.074219-0.039062-0.16406-0.0625-0.26562-0.0625-0.24219 0-0.42969 0.09375-0.5625 0.28125-0.13672 0.17969-0.20312 0.43359-0.20312 0.76562v1.7656h-1.1562v-3.5938h1.1562v0.51562c0.17578-0.20703 0.35938-0.35938 0.54688-0.45312 0.19531-0.10156 0.41406-0.15625 0.65625-0.15625 0.41406 0 0.72656 0.13281 0.9375 0.39062 0.21875 0.25 0.32812 0.62109 0.32812 1.1094z"/>
  </symbol>
  <symbol id="s" overflow="visible">
   <path d="m2.5312-2.9375c0.1875 0 0.33203-0.039062 0.4375-0.125 0.10156-0.09375 0.15625-0.22266 0.15625-0.39062 0-0.15625-0.054688-0.27344-0.15625-0.35938-0.10547-0.09375-0.25-0.14062-0.4375-0.14062h-0.6875v1.0156zm0.03125 2.0938c0.25 0 0.4375-0.050781 0.5625-0.15625 0.125-0.10156 0.1875-0.25781 0.1875-0.46875 0-0.20703-0.0625-0.36328-0.1875-0.46875-0.125-0.10156-0.3125-0.15625-0.5625-0.15625h-0.71875v1.25zm1.1562-1.7188c0.25781 0.074219 0.46094 0.21484 0.60938 0.42188 0.14453 0.21094 0.21875 0.46484 0.21875 0.76562 0 0.46094-0.15625 0.80469-0.46875 1.0312-0.3125 0.23047-0.78906 0.34375-1.4219 0.34375h-2.0469v-4.7969h1.8438c0.66406 0 1.1484 0.10547 1.4531 0.3125 0.30078 0.19922 0.45312 0.51562 0.45312 0.95312 0 0.24219-0.058594 0.44531-0.17188 0.60938-0.10547 0.15625-0.26172 0.27734-0.46875 0.35938z"/>
  </symbol>
  <symbol id="g" overflow="visible">
   <path d="m0.51562-1.4062v-2.1875h1.1562v0.35938c0 0.1875-0.007813 0.43359-0.015625 0.73438v0.57812c0 0.29297 0.003906 0.50781 0.015625 0.64062 0.019531 0.125 0.050781 0.21484 0.09375 0.26562 0.039063 0.074219 0.097656 0.13281 0.17188 0.17188 0.082031 0.042969 0.17188 0.0625 0.26562 0.0625 0.23828 0 0.42578-0.085938 0.5625-0.26562 0.14453-0.1875 0.21875-0.44531 0.21875-0.78125v-1.7656h1.1406v3.5938h-1.1406v-0.51562c-0.17969 0.21094-0.36719 0.36719-0.5625 0.46875-0.1875 0.09375-0.39844 0.14062-0.625 0.14062-0.41797 0-0.73438-0.125-0.95312-0.375-0.21875-0.25781-0.32812-0.63281-0.32812-1.125z"/>
  </symbol>
  <symbol id="f" overflow="visible">
   <path d="m3.4531-3.4844v0.9375c-0.15625-0.10156-0.3125-0.17969-0.46875-0.23438-0.15625-0.050781-0.32031-0.078125-0.48438-0.078125-0.32422 0-0.57422 0.09375-0.75 0.28125-0.17969 0.1875-0.26562 0.44922-0.26562 0.78125 0 0.33594 0.085937 0.59375 0.26562 0.78125 0.17578 0.1875 0.42578 0.28125 0.75 0.28125 0.17578 0 0.34375-0.023437 0.5-0.078125 0.16406-0.050781 0.31641-0.12891 0.45312-0.23438v0.9375c-0.17969 0.074219-0.35938 0.125-0.54688 0.15625-0.17969 0.03125-0.35938 0.046875-0.54688 0.046875-0.65625 0-1.168-0.16406-1.5312-0.5-0.36719-0.33203-0.54688-0.79688-0.54688-1.3906s0.17969-1.0547 0.54688-1.3906c0.36328-0.33203 0.875-0.5 1.5312-0.5 0.1875 0 0.36719 0.023438 0.54688 0.0625 0.1875 0.03125 0.36719 0.078125 0.54688 0.14062z"/>
  </symbol>
  <symbol id="r" overflow="visible">
   <path d="m2.9219-5v0.75h-0.64062c-0.15625 0-0.27344 0.03125-0.34375 0.09375-0.0625 0.0625-0.09375 0.16797-0.09375 0.3125v0.25h0.98438v0.8125h-0.98438v2.7812h-1.1406v-2.7812h-0.57812v-0.8125h0.57812v-0.25c0-0.39453 0.10938-0.6875 0.32812-0.875s0.55469-0.28125 1.0156-0.28125z"/>
  </symbol>
  <symbol id="q" overflow="visible">
   <path d="m3.8906-3c0.14453-0.21875 0.31641-0.38281 0.51562-0.5 0.19531-0.125 0.41406-0.1875 0.65625-0.1875 0.41406 0 0.72656 0.13281 0.9375 0.39062 0.21875 0.25 0.32812 0.62109 0.32812 1.1094v2.1875h-1.1562v-1.875c0.007813-0.03125 0.015625-0.054688 0.015625-0.078125v-0.14062c0-0.25-0.042969-0.42969-0.125-0.54688-0.074219-0.11328-0.19531-0.17188-0.35938-0.17188-0.21875 0-0.38672 0.089844-0.5 0.26562-0.11719 0.17969-0.17969 0.4375-0.1875 0.78125v1.7656h-1.1562v-1.875c0-0.39453-0.039063-0.64844-0.10938-0.76562-0.0625-0.11328-0.18359-0.17188-0.35938-0.17188-0.21875 0-0.39062 0.089844-0.51562 0.26562-0.11719 0.17969-0.17188 0.4375-0.17188 0.78125v1.7656h-1.1562v-3.5938h1.1562v0.51562c0.14453-0.19531 0.30469-0.34766 0.48438-0.45312 0.1875-0.10156 0.39062-0.15625 0.60938-0.15625 0.25 0 0.46875 0.0625 0.65625 0.1875 0.1875 0.11719 0.33203 0.28125 0.4375 0.5z"/>
  </symbol>
  <symbol id="p" overflow="visible">
   <path d="m0.60938-4.7969h1.375l1.75 3.2969v-3.2969h1.1719v4.7969h-1.3906l-1.7344-3.2969v3.2969h-1.1719z"/>
  </symbol>
  <symbol id="o" overflow="visible">
   <path d="m0.60938-4.7969h2.0469c0.61328 0 1.082 0.13672 1.4062 0.40625 0.32031 0.27344 0.48438 0.65625 0.48438 1.1562 0 0.51172-0.16406 0.90234-0.48438 1.1719-0.32422 0.27344-0.79297 0.40625-1.4062 0.40625h-0.8125v1.6562h-1.2344zm1.2344 0.89062v1.3438h0.6875c0.23828 0 0.42188-0.054688 0.54688-0.17188 0.13281-0.11328 0.20312-0.28125 0.20312-0.5 0-0.20703-0.070312-0.36719-0.20312-0.48438-0.125-0.125-0.30859-0.1875-0.54688-0.1875z"/>
  </symbol>
  <symbol id="n" overflow="visible">
   <path d="m0.54688-3.5938h1.1562v3.5312c0 0.47656-0.11719 0.84375-0.34375 1.0938-0.23047 0.25781-0.57031 0.39062-1.0156 0.39062h-0.5625v-0.75h0.20312c0.21875 0 0.36328-0.054687 0.4375-0.15625 0.082031-0.09375 0.125-0.28906 0.125-0.57812zm0-1.4062h1.1562v0.9375h-1.1562z"/>
  </symbol>
 </defs>
 <g>
  <path d="m302.97 272.21c1.457 0 3.1641-1.7695 3.1641-2.6758 0-0.23438-0.089844-0.44922-0.25-0.60547-0.10938-0.10156-0.30078-0.22656-0.59766-0.22656h-4.8477c-0.28125 0-0.46484 0.10938-0.57031 0.19922-0.17969 0.15234-0.27734 0.37109-0.27734 0.61328 0 0.97266 1.9531 2.6953 3.3789 2.6953z"/>
  <path d="m393.38 272.21c1.457 0 3.1641-1.7695 3.1641-2.6758 0-0.23438-0.089844-0.44922-0.25-0.60547-0.10938-0.10156-0.30078-0.22656-0.59766-0.22656h-4.8477c-0.49219 0-0.84766 0.34375-0.84766 0.8125 0 0.97266 1.9531 2.6953 3.3789 2.6953z"/>
  <path d="m253.11 323.87h-2.6328l1.3164 19.312z"/>
  <path d="m232.84 323.87h-2.6367l1.3164 19.312z"/>
  <path d="m237.9 323.87h-2.6367l1.3203 13.711z"/>
  <path d="m242.97 323.87h-2.6328l1.3164 11.844z"/>
  <path d="m248.04 323.87h-2.6328l1.3164 13.711z"/>
  <path d="m218.86 323.87h-2.6328l1.3164 15.578z"/>
  <path d="m224.05 323.87h-2.6367l1.3203 19.312z"/>
  <path d="m187.73 323.87h-2.6367l1.3164 15.578z"/>
  <path d="m182.54 323.87h-2.6328l1.3164 19.312z"/>
  <path d="m192.92 323.87h-2.6367l1.3164 13.711z"/>
  <path d="m198.11 323.87h-2.6328l1.3164 11.844z"/>
  <path d="m203.29 323.87h-2.6328l1.3164 9.9805z"/>
  <path d="m208.48 323.87h-2.6367l1.3164 11.844z"/>
  <path d="m213.67 323.87h-2.6328l1.3164 13.711z"/>
  <path d="m445.75 323.87h-2.6367l1.3203 19.312z"/>
  <path d="m466.02 323.87h-2.6328l1.3164 19.312z"/>
  <path d="m460.95 323.87h-2.6328l1.3164 13.711z"/>
  <path d="m455.88 323.87h-2.6367l1.3164 11.844z"/>
  <path d="m450.81 323.87h-2.6328l1.3164 13.711z"/>
  <path d="m479.99 323.87h-2.6367l1.3164 15.578z"/>
  <path d="m474.8 323.87h-2.6328l1.3164 19.312z"/>
  <path d="m511.12 323.87h-2.6367l1.3203 15.578z"/>
  <path d="m516.32 323.87h-2.6328l1.3164 19.312z"/>
  <path d="m505.93 323.87h-2.6328l1.3164 13.711z"/>
  <path d="m500.75 323.87h-2.6328l1.3164 11.844z"/>
  <path d="m495.56 323.87h-2.6367l1.3164 9.9805z"/>
  <path d="m490.37 323.87h-2.6328l1.3164 11.844z"/>
  <path d="m485.18 323.87h-2.6367l1.3203 13.711z"/>
  <path d="m348.25 329.89c-0.125 0-0.25 0.003906-0.37891 0.011719-0.91797 0.054687-1.8281 0.28125-2.5039 0.625-0.75391 0.38281-1.3398 0.81641-1.7852 1.3281-1.2852 1.4609-1.8125 2.8789-1.7109 4.5859 0.10547 1.7695 0.77734 3.25 1.9375 4.2734 1.4336 1.2695 2.9258 1.8281 4.6523 1.7305 1.7422-0.10156 3.2148-0.78516 4.2617-1.9766 1.25-1.4297 1.8047-2.9297 1.6875-4.582-0.11719-1.7422-0.80469-3.2539-1.9375-4.2539-1.3555-1.1914-2.6953-1.7422-4.2227-1.7422z"/>
  <path d="m348.31 323.71c-0.24609 0-0.49219 0.007812-0.74609 0.023437-1.8086 0.10938-3.5664 0.55469-4.9531 1.2578-1.4883 0.75781-2.6562 1.6328-3.5781 2.6797-2.4688 2.8125-3.5273 5.6914-3.3242 9.0586 0.20703 3.4844 1.5547 6.4219 3.9023 8.4961 2.7852 2.4609 5.7148 3.5703 9.168 3.3633 3.4453-0.19531 6.3789-1.5703 8.4844-3.9766 2.4492-2.793 3.5273-5.7617 3.2969-9.0859-0.23828-3.418-1.625-6.4141-3.9102-8.4336-2.5781-2.2734-5.3086-3.3828-8.3398-3.3828zm10.316 11.875c0.19531 2.793-0.72266 5.375-2.7305 7.6641-1.8164 2.0703-4.3086 3.25-7.207 3.4141-0.21094 0.011719-0.41797 0.019531-0.625 0.019531-2.5938 0-4.9727-0.94531-7.0742-2.8047-1.9922-1.7578-3.1836-4.3125-3.3555-7.1953-0.16406-2.832 0.73438-5.3281 2.7578-7.6289 0.8125-0.92188 1.8086-1.6797 3.0508-2.3086 1.1953-0.60547 2.6758-0.98828 4.1719-1.0742 2.8086-0.16406 5.3672 0.76953 7.6523 2.7773 1.9766 1.7461 3.1641 4.2812 3.3594 7.1367z"/>
  <path d="m521.16 356.18v-39.652c0-0.69141-0.5625-1.2539-1.2539-1.2539h-343.54c-0.69141 0-1.2539 0.5625-1.2539 1.2539v39.652c0 0.69141 0.5625 1.2539 1.2539 1.2539h343.54c0.69141 0 1.2539-0.55859 1.2539-1.2539zm-294.59-4.4531h-48.977v-30.738h48.977zm28.984 0h-27.664v-30.738h27.664zm180.64-25.676h-77.801c1.6484 1.6094 2.8516 3.6602 3.5273 5.9883h74.277v1.3164h-73.957c0.13281 0.66406 0.23828 1.3438 0.28516 2.0391 0.09375 1.3555-0.015625 2.668-0.30469 3.9492h73.977v1.3164h-74.348c-0.625 1.8438-1.6523 3.6016-3.1016 5.2578-0.22656 0.25781-0.46875 0.49219-0.70703 0.73047h78.16v1.3164h-79.719c-2.1367 1.5391-4.7109 2.4336-7.5898 2.5977-0.29688 0.015625-0.58203 0.023438-0.87109 0.023438-2.9453 0-5.6094-0.87109-8.1094-2.6211h-79.973v-1.3164h78.301c-1.7969-1.6055-3.0742-3.6406-3.8086-5.9883h-74.492v-1.3164h74.145c-0.17578-0.80469-0.30078-1.6328-0.35156-2.4961-0.070313-1.207 0.019531-2.3633 0.23828-3.4883h-73.852v-1.3164h74.18c0.60547-1.9883 1.6719-3.8711 3.25-5.6719 0.097657-0.10938 0.20703-0.21094 0.30859-0.31641h-77.918v-1.3164h79.371c0.71484-0.54688 1.5078-1.0469 2.4062-1.5039 1.6211-0.82422 3.6562-1.3438 5.7305-1.4688 3.5195-0.19531 6.5586 0.77734 9.4297 2.9727h79.324l-0.003906 1.3125zm32.137 25.676h-27.66v-30.738h27.66zm50.332 0h-49.012v-30.738h49.012z"/>
  <path d="m186.99 488.41 3.625-2.9883v-1.0195l-3.2266-2.6562v-0.50391h-2.6211v8.3359h2.2227z"/>
  <path d="m172.55 473.04-2.8789 2.375v1.6406l2.9297 2.4102v0.44531h2.625v-7.2305h-2.6758z"/>
  <path d="m187.39 498.78 2.9297-2.4141v-1.6133l-3.332-2.375v-1.4648h-2.2188v8.3047h2.6211z"/>
  <path d="m190.32 511.7-2.8828-2.375v-0.35547h-2.668v7.2266h2.6211v-0.44531l2.9297-2.4102z"/>
  <path d="m187.43 506.89 3.1797-2.1914v-0.98828l-3.2266-2.6602v-0.5h-2.6211v7.082h2.668z"/>
  <path d="m172.6 501.05-3.2305 2.6602v0.98828l3.1797 2.1914v0.74219h2.6758v-7.082h-2.625z"/>
  <path d="m172.6 481.75-3.2305 2.6562v1.0195l3.6289 2.9883v1.168h2.2266v-8.3359h-2.625z"/>
  <path d="m172.55 509.33-2.8789 2.375v1.6406l2.9297 2.4102v0.44531h2.625v-7.2266h-2.6758z"/>
  <path d="m173 492.38-3.332 2.375v1.6133l2.9297 2.4141v0.4375h2.625v-8.3047h-2.2227z"/>
  <path d="m187.39 479.47 2.9297-2.4102v-1.6406l-2.8828-2.375v-0.35938h-2.668v7.2305h2.6211z"/>
  <path d="m523.27 488.41 3.6289-2.9883v-1.0195l-3.2305-2.6562v-0.50391h-2.6211v8.3359h2.2227z"/>
  <path d="m523.67 479.47 2.9297-2.4102v-1.6406l-2.8828-2.375v-0.35938h-2.668v7.2305h2.6211z"/>
  <path d="m523.67 498.78 2.9297-2.4141v-1.6133l-3.3359-2.375v-1.4648h-2.2148v8.3047h2.6211z"/>
  <path d="m526.6 511.7-2.8828-2.375v-0.35547h-2.668v7.2266h2.6211v-0.44531l2.9297-2.4102z"/>
  <path d="m523.72 506.89 3.1836-2.1914v-0.98828l-3.2305-2.6602v-0.5h-2.6211v7.082h2.668z"/>
  <path d="m508.84 509.33-2.8828 2.375v1.6406l2.9297 2.4102v0.44531h2.6211v-7.2266h-2.668z"/>
  <path d="m509.29 492.38-3.332 2.375v1.6133l2.9297 2.4141v0.4375h2.6211v-8.3047h-2.2188z"/>
  <path d="m508.89 501.05-3.2266 2.6602v0.98828l3.1797 2.1914v0.74219h2.668v-7.082h-2.6211z"/>
  <path d="m564.25 220.86h-25.016c-2.6055 0-4.7188 2.1172-4.7188 4.7227v36.316c-1.4766 1.2344-2.9023 2.4414-3.7656 3.2109-0.03125 0.027343-0.058594 0.046875-0.089844 0.074219-2.4648-12.875-5.1523-25.02-8.1094-36.609-6.4336-25.223-15.301-55.566-16.879-60.941h0.98047c1.6055 0 2.9102-1.3047 2.9102-2.9062 0-1.6055-1.3047-2.9102-2.9102-2.9102h-4.8516c-4.8633-12.938-20.648-21.543-46.957-25.578-28.066-4.3047-61.973-6.3086-106.71-6.3086s-78.645 2.0039-106.71 6.3086c-26.309 4.0352-42.094 12.641-46.961 25.578l-4.8555-0.003906c-1.6055 0-2.9102 1.3047-2.9102 2.9102s1.3047 2.9062 2.9102 2.9062h0.98047c-1.582 5.375-10.449 35.719-16.883 60.941-2.957 11.594-5.6445 23.734-8.1094 36.609-0.03125-0.027343-0.054687-0.042969-0.089843-0.074219-0.86328-0.76562-2.2852-1.9727-3.7617-3.207v-36.32c0-2.6055-2.1172-4.7227-4.7227-4.7227l-25.016 0.003907c-2.6055 0-4.7227 2.1172-4.7227 4.7227v38.082c0 2.6055 2.1172 4.7227 4.7227 4.7227h25.016c0.625 0 1.2344-0.12109 1.8008-0.35547 1.9688 1.0273 3.6055 1.8789 4.1562 2.1562 0.55078 0.27344 1.0703 0.92969 1.4141 1.4375-1.7656 9.6914-3.4141 19.805-4.9531 30.422l-0.039062 0.28516 1.8867 2.3242c-0.33594 2.4023-0.67188 4.8047-0.98438 7.207-2.4219 18.793-1.9219 48.602-1.7109 61.332 0.019532 1.2148 0.035156 2.2266 0.046875 3.0586-0.91016 0.44922-2.4766 1.9297-5.3125 6.3711-1.4922 2.6602-1.543 8.1406-0.19141 20.938 0.91406 8.6484 1.4766 12.203 2.1875 16.707l0.29688 1.8945c-0.38281 0.73828-0.59375 1.6484-0.59375 2.7305l0.054688 0.54297c-1.5625 0.023437-2.5312 1.0703-2.5234 2.8516 0.007812 0.054688 0.57812 5.5664 0.70312 8.1641 0.16406 3.3516 1.5781 4.7422 2.8477 5.3086-0.050781 14.035-0.15625 65.375 0.023438 70.531 0.32031 9.1484 4.8594 14.609 12.145 14.609l26.055-0.003907c0.19922-0.019531 4.8945-0.5625 7.9766-8.4805 1.6172-4.1562 1.6172-8.9844 1.6172-14.574v-0.35938c0-2.2109-0.007813-8.6445-0.015626-15.961h15.629l8.2969-6.9727c1.125-0.16797 6.0586-0.79297 13.621 0.050781 2.1797 0.24219 4.8828 0.62891 7.75 1.0352 9.1445 1.3008 20.531 2.9219 29.32 2.207 10.953-0.88672 31.289-5.1211 33.23-5.5273 2.4258 0.23047 27.77 2.625 36.363 2.625 8.5898 0 33.938-2.3945 36.363-2.625 1.9453 0.41016 22.277 4.6406 33.23 5.5273 8.7891 0.71484 20.172-0.90625 29.32-2.207 2.8633-0.40625 5.5703-0.79297 7.75-1.0352 7.5547-0.83984 12.492-0.21875 13.621-0.050781l8.2969 6.9727h15.633c-0.007813 7.3203-0.015625 13.754-0.015625 15.961v0.35938c0 5.5898 0 10.418 1.6172 14.574 3.082 7.918 7.7734 8.4648 8.0703 8.4883h25.961c7.2852 0 11.824-5.4609 12.145-14.609 0.18359-5.1758 0.074218-57.02 0.023437-70.535 1.2695-0.57031 2.6758-1.9609 2.8398-5.3086 0.12891-2.6016 0.69922-8.1094 0.71094-8.2656 0-1.6797-0.96875-2.7266-2.5312-2.75l0.0625-0.64453c0-1.043-0.21484-1.9297-0.59766-2.6523l0.28906-1.832c0.71484-4.5078 1.2773-8.0703 2.1953-16.742 1.3516-12.797 1.3008-18.273-0.21875-20.984-2.8203-4.4062-4.3789-5.8789-5.2852-6.3242 0.011719-0.83203 0.027343-1.8438 0.046875-3.0586 0.21484-12.73 0.71094-42.539-1.7109-61.328-0.30859-2.4023-0.64844-4.8047-0.98438-7.207l1.8867-2.3242-0.039062-0.28516c-1.5391-10.621-3.1875-20.73-4.9492-30.422 0.33984-0.50391 0.86719-1.1602 1.4141-1.4375 0.55078-0.27734 2.1914-1.125 4.1562-2.1562 0.57031 0.23438 1.1719 0.35547 1.7969 0.35547h25.016c2.6055 0 4.7227-2.1172 4.7227-4.7227v-38.082c0.015624-2.6094-2.1055-4.7305-4.707-4.7305zm-57.602-57.734c0.87891 0 1.5938 0.71484 1.5938 1.5938s-0.71484 1.5898-1.5938 1.5898h-12.055c-0.45312-1.1875-0.96875-2.2461-1.5312-3.1836zm16.293 247.65h11.086c0.1875 0 0.34766-0.023437 0.52344-0.03125-0.046876 0.6875-0.09375 1.3711-0.14063 2.0547h-19v-31.918h16.367c0.14062 0.003906 3.2188 0.15234 3.6836 2.6797-0.22266-0.019532-0.44141-0.042969-0.68359-0.042969h-11.828c-2.957 0-4.457 1.4062-4.457 4.1875v18.891c-0.011719 2.7695 1.4883 4.1797 4.4492 4.1797zm11.324 3.9961c-0.13281 1.7539-0.27344 3.5195-0.42969 5.293h-18.434v-5.293zm-357.91-53.902c-2.5781 0-4.6797-2.0977-4.6797-4.6797v-39.652c0-2.5781 2.0977-4.6797 4.6797-4.6797h343.54c2.5781 0 4.6797 2.0977 4.6797 4.6797v39.652c0 2.5781-2.0977 4.6797-4.6797 4.6797zm97.336 53.902v3.4883h148.87v-3.4883h91.52v5.293h-331.85v-5.293zm-91.457-1.9766v-31.918h41.359v31.918zm283.2-22.75v1.3164h-234.62v-1.3164zm-234.62-4.8164v-1.3164h234.62v1.3164zm234.62 10.949v1.3164h-234.62v-1.3164zm0 6.1328v1.3164h-234.62v-1.3164zm0 6.1328v1.3164h-234.62v-1.3164zm7.2188 4.3516v-31.918h41.426v31.918zm0-33.895h-290.42v-16.391h331.85v16.391zm-290.36-73.453c0.35938-3.1055 1.8906-15.828 4.2891-30.273 0.59766 0.054687 1.2109 0.089843 1.8555 0.089843 1.7539 0 7.0312 0.003907 14.691 0.015626 20.641 0.023437 57.66 0.0625 90.34 0.0625 22.57 0 43.07-0.019532 54.664-0.078126 28.375-0.13672 110.09-0.050781 144.99-0.015624 7.6641 0.007812 12.938 0.015624 14.691 0.015624 0.64844 0 1.2617-0.035156 1.8555-0.089843 2.4141 14.523 3.9453 27.301 4.293 30.273zm331.75 1.3203 0.003906 3.4531h-331.84v-3.4531zm-278.12-79.16c0.10547 2.3008 0.28906 6.0039 3.3477 7.1133-0.16016 0.83203-0.25391 1.25-0.32813 1.5547-0.070312 0.29297-0.12109 0.51172-0.19141 0.94141h-10.586c0.43359-2.5078 1.6953-9.7969 3.0156-17.043 1.6328-8.9609 4.8906-22.906 5.7422-26.516l2.2188 1.2773c-1.1406 1.1523-2.0273 2.7617-2.3906 5.2188-0.68359 4.6172-0.98828 23.984-0.82812 27.453zm-8.6914-9.6055c-1.6602 8.0547-2.7305 14.836-3.4102 19.387-2.4883 0.42578-4.5586 1.8516-5.7461 6.4258h-9.9102c1.5977-8.5859 4.0469-21.605 5.0234-26.113 2.6406-12.156 6.7773-28.973 7.75-32.895l12.277 6.8672c-0.625 2.5469-3.5547 14.562-5.9844 26.328zm-9.6992 28.516c-0.046875 0.27734-0.09375 0.5625-0.14062 0.83984l-10.508 3.3672c0.17188-0.92188 0.44141-2.3906 0.77734-4.2031zm-4.2305 19.59c25.266-0.24609 67.301-0.64844 104.03-0.82422l4.6602 2.5781v0.64844c0 2.1641 1.7617 3.9219 3.9258 3.9219 2.1641 0 3.9258-1.7617 3.9258-3.9219v-1.8359h-0.066406c0.035156-0.21484 0.066406-0.42969 0.066406-0.65234 0-0.27344-0.035156-0.53516-0.089844-0.78906 6.4297-0.019531 12.609-0.03125 18.379-0.03125 39.387 0 97.223 0.54297 130.77 0.86719l3.2422 1.7969v0.64844c0 2.1641 1.7617 3.9219 3.9258 3.9219 2.1641 0 3.9258-1.7617 3.9258-3.9219v-1.8359h-0.066406c0.027344-0.16406 0.039062-0.33203 0.050781-0.5 9.3711 0.089844 15.535 0.14453 17.488 0.14453 0.22266 0 0.43359-0.019531 0.64844-0.027344 0.46875 2.543 0.91797 5.082 1.3398 7.5781-0.52734 0.042968-1.0664 0.074218-1.6406 0.074218-1.7539 0-7.0312-0.003906-14.691-0.015625-34.898-0.035156-116.62-0.125-145 0.015625-28.379 0.13672-110.09 0.050782-144.99 0.015625-7.6641-0.007812-12.938-0.015625-14.691-0.015625-0.57422 0-1.1133-0.027344-1.6406-0.074218 0.42187-2.4961 0.86719-5.0352 1.3398-7.5781 0.21875 0.007813 0.42578 0.027344 0.64844 0.027344 2.4023 0 11.199-0.085937 24.512-0.21484zm26.816-28.895c0.042968-0.24609 0.085937-0.42578 0.13672-0.63672 0.074219-0.30859 0.16797-0.72656 0.33203-1.5625 0.39062 0.046876 0.85547 0.09375 1.4141 0.13672v2.0586zm39.434-22.5h-31.945c-0.64844 0-1.1133-0.13672-1.3398-0.39453-0.23047-0.26172-0.1875-0.63281-0.17969-0.69141 0 0 0.82422-9.8516 0.98828-11.66 0.09375-1.0508 1.0195-1.3555 1.2734-1.4219h30.453c0.23828 0.0625 1.1797 0.37109 1.2734 1.4219 0.16406 1.8086 0.98828 11.66 0.99609 11.715 0 0.003907 0.046875 0.375-0.1875 0.63672-0.21875 0.25781-0.67969 0.39453-1.332 0.39453zm0.34375 20.727v1.7734h-32.629v-1.8125c4.8633 0.14844 10.867 0.19922 14.551 0.19922h6.8945c1.4492-0.003906 6.5625-0.015625 11.184-0.16016zm10.516-35.289c-0.22266-1.4961-0.64844-2.6602-1.1953-3.6211h118.66c-0.54687 0.96094-0.97266 2.125-1.1953 3.6211-0.6875 4.6211-0.99219 23.988-0.82812 27.453 0.11719 2.5312 0.3125 6.7656 4.3477 7.3711 0.47266 0.070312 1.0625 0.13281 1.7305 0.1875v2.0469h-15.754c-3.2773 0-6.1562 0.46875-7.832 5.1367l-2.8555 0.52344h-76.535c-1.4688-5.1523-4.9336-5.6602-8.1641-5.6602h-15.625v-2.0469c0.66797-0.054688 1.2578-0.11719 1.7305-0.1875 4.0352-0.60547 4.2305-4.8398 4.3477-7.3711 0.15625-3.4648-0.14844-22.832-0.83594-27.453zm60.129-31.234h18.633c0.30469 0 1.2188 0.13672 1.3008 0.54688 0.24219 1.1992 1.625 10.562 1.6562 10.738 0 0.007813 0.14844 0.67578-0.16406 1.0703-0.26953 0.34375-0.86328 0.41797-1.3086 0.41797h-45.055c-0.44922 0-1.0391-0.074219-1.3086-0.41797-0.3125-0.39453-0.16406-1.0664-0.14844-1.1562 0.015624-0.09375 1.3984-9.457 1.6406-10.656 0.082032-0.41016 0.98438-0.54297 1.3008-0.54688h18.633c0.47266 0 0.85547-0.38281 0.85547-0.85547v-17.004c0.52344 0 1.0234-0.003906 1.5547-0.003906 0.52734 0 1.0312 0.003906 1.5547 0.003906v17.004c0 0.47656 0.38281 0.85938 0.85547 0.85938zm107.13 70.172c5.3867 1.6172 10.484 4.1953 14.844 7.6523-9.6016-5.6406-20.578-8.1289-31.492-8.0078-7.3711 0.019532-14.727 1.2617-21.668 3.8125h-2.7266c2.4727-1.3047 5.0742-2.3867 7.75-3.2305 5.3594-1.7266 11.012-2.5039 16.625-2.5547 5.6289-0.023437 11.277 0.67969 16.668 2.3281zm-2.5742-2.5664v-1.3633c0.35938-0.027344 0.69141-0.054688 0.98828-0.089844 0.15625 0.82422 0.24609 1.2344 0.30859 1.5195 0.019531 0.085938 0.035156 0.16797 0.054687 0.25-0.44922-0.10938-0.89062-0.21875-1.3516-0.31641zm5.2461-36.371c-0.39453-2.6719-1.4141-4.3438-2.6992-5.5078l1.6953-0.98828c0.85156 3.6172 4.1094 17.555 5.7383 26.512 1.3203 7.2461 2.5859 14.535 3.0156 17.043h-10.176c-0.011719-0.003906-0.023437-0.007813-0.035156-0.011719-0.070313-0.42578-0.10938-0.61328-0.17578-0.90625-0.0625-0.27344-0.14453-0.66797-0.29688-1.4492 3.4609-0.91406 3.6484-4.8438 3.7578-7.2422 0.16406-3.4609-0.14062-22.828-0.82422-27.449zm19.156 47.402c-0.097656-0.9375-0.16016-1.5547-0.17578-1.6719-0.71875-6.7109-3.7188-8.2578-6.8984-8.5859-0.71875-4.8359-1.75-11.32-3.3984-19.293-2.4258-11.77-5.3555-23.781-5.9844-26.328l12.277-6.8672c0.96875 3.9219 5.1094 20.738 7.75 32.895 1.3281 6.1094 5.3555 27.883 6.3047 33.02zm12.125 12.391c-0.875-2.1328-1.8477-4.2344-3.1172-6.1211-0.64453-0.92578-1.3711-1.8242-2.2695-2.4141-0.43359-0.30078-0.95313-0.49219-1.3906-0.53516-0.52344-0.015626-1.1367 0.027343-1.7031 0.039062l-13.832 0.27734c-2.5938 0.046875-5.1836 0.066406-7.7734 0.097656l-4.125-1.7656c3.9648 0.03125 7.9297 0.074219 11.898 0.14844l13.832 0.27344c0.58594 0.027344 1.125 0.019531 1.7539 0.074219 0.71094 0.10547 1.2695 0.40234 1.7695 0.78125 0.98828 0.75781 1.6719 1.7422 2.2773 2.7422 1.1992 2.0156 2.0078 4.1992 2.6797 6.4023zm-74.426-22.73v-1.7734c4.6211 0.14844 9.7344 0.16016 11.188 0.16016h4.9375c-3.0195 0.36719-5.8125 0.92188-8.3906 1.6172zm33.625-22.895c-0.22656 0.25781-0.6875 0.39453-1.3398 0.39453h-31.945c-0.64844 0-1.1133-0.13672-1.3398-0.39453-0.23047-0.26172-0.1875-0.63281-0.17969-0.69141 0 0 0.82422-9.8516 0.98828-11.66 0.09375-1.0508 1.0195-1.3555 1.2734-1.4219h30.453c0.23828 0.0625 1.1797 0.37109 1.2734 1.4219 0.16406 1.8086 0.98828 11.66 0.99609 11.715 0.003907 0 0.050782 0.37109-0.17969 0.63672zm-9.1719 35.121c2.4258 0.007812 4.8516 0.019531 7.2773 0.027344l3.4375 1.9023c-3.5703 0.019531-7.1406 0.035157-10.715 0.042969-9.2227-0.027344-18.445-0.050781-27.664-0.23047l-13.832-0.27344-1.7305-0.054688c-0.51953-0.03125-0.99219 0.085938-1.4609 0.33984-0.93359 0.5-1.6992 1.3711-2.3672 2.2773-1.3125 1.8516-2.3086 3.9492-3.2031 6.0703 0.69531-2.1953 1.5234-4.375 2.7695-6.3633 0.63672-0.98047 1.3594-1.9531 2.4297-2.6289 0.51953-0.33594 1.1953-0.55469 1.832-0.55078l1.7305-0.054688 13.832-0.27344c9.2227-0.17969 18.441-0.20703 27.664-0.23047zm-256.16 24.27c-2.1367-0.35547-3.8164-1.1289-4.9922-2.3203-1.4414-1.4648-2.1484-3.5391-2.1055-6.1758 0.023437-1.375 0.25-3.3516 0.65625-5.8086 0.24609 1.1641 0.69531 2.3359 1.4727 3.3984 1.3984 1.9062 3.5195 3.0312 6.293 3.3867-0.46094 2.5234-0.90625 5.043-1.3242 7.5195zm323.95-7.5234c2.7773-0.35547 4.8984-1.4805 6.293-3.3867 0.77734-1.0625 1.2266-2.2344 1.4727-3.3984 0.40625 2.457 0.63281 4.4336 0.65625 5.8086 0.042969 2.6328-0.66406 4.7109-2.1055 6.1758-1.1758 1.1953-2.8555 1.9648-4.9922 2.3242-0.41406-2.4766-0.85547-4.9961-1.3242-7.5234zm3.3477-7.5625-18.102-6.0898c-0.39453-2.2812-2.4336-13.91-6.3086-33.848-2.6562-13.66-7.6758-32.809-8.582-36.242l13-7.0898c2.4922 8.0586 6.6523 22.105 10.754 38.625 2.5078 10.098 7.7227 32.809 8.9414 39.652l0.070312 0.28125c0.24609 0.78125 0.65625 2.9102 0.22656 4.7109zm-20.594-96.812c-2.9102-3.9531-6.7773-5.418-10.07-6.2344-13.609-3.3594-49.109-9-134-9-84.883 0-120.39 5.6406-134 9-3.2852 0.8125-7.1406 2.2734-10.062 6.2344h-4.2227c3.9102-6.6992 11.293-11.391 20.945-13.254 27.207-5.25 79.574-8.918 127.34-8.918 47.77 0 100.14 3.668 127.34 8.918 9.6523 1.8594 17.039 6.5508 20.945 13.254zm-275.73 20.633c-0.90625 3.4297-5.9258 22.582-8.582 36.242-2.2188 11.418-3.832 20.098-4.8867 25.871h-11.742c-0.14844 0-0.28906 0.0625-0.39062 0.17188l-0.82422 0.90625c-0.14062 0.15234-0.17578 0.37891-0.09375 0.57031 0.085937 0.19141 0.27344 0.3125 0.48047 0.3125h12.211c-0.57031 3.1641-0.92578 5.1992-1.0703 6.0156l-18.105 6.0898c-0.42188-1.7734-0.027344-3.875 0.23047-4.7109l0.070313-0.28125c1.2188-6.8516 6.4336-29.559 8.9414-39.652 4.1055-16.531 8.2656-30.586 10.754-38.625zm-28.102 30.457c-1.5039 6.0547-3.9805 16.633-5.9922 25.656-3.3164 12.723-5.2227 22.281-5.293 26.633-0.046875 3 0.78906 5.3984 2.4844 7.1211 1.3711 1.3945 3.293 2.293 5.7148 2.6992-2.4258 14.602-3.9609 27.445-4.3086 30.438h-2.5273c-4.4492 0-7.6484-1.0391-9.5156-3.0859-1.8633-2.043-1.9297-4.6172-1.8047-5.9727 0.94922-10.191 5.8516-36.465 14.668-72.184 6.7383-27.309 13.246-48.617 15.75-56.578h3.6641c-1.3945 4.3281-7.1797 22.48-12.84 45.273zm322.62 62.109c2.418-0.40625 4.3398-1.3008 5.7148-2.6992 1.6953-1.7266 2.5312-4.1211 2.4844-7.1172-0.070313-4.3516-1.9766-13.906-5.293-26.621-2.0156-9.0234-4.4883-19.609-5.9961-25.668-5.6445-22.73-11.406-40.836-12.848-45.273h3.668c3.1055 9.8711 9.2617 30.289 15.75 56.578 8.8164 35.723 13.719 61.992 14.668 72.184 0.125 1.3516 0.0625 3.9258-1.8008 5.9688-1.8672 2.0508-5.0664 3.0898-9.5156 3.0898h-2.5234c-0.32812-2.8555-1.8672-15.758-4.3086-30.441zm-269.26-136.82c27.961-4.2852 61.773-6.2852 106.41-6.2852 44.633 0 78.445 1.9961 106.41 6.2852 25.059 3.8398 40.207 11.793 45.113 23.625h-1.7305c-3.9961-7.3867-11.859-12.551-22.207-14.547-27.277-5.2656-79.746-8.9414-127.59-8.9414-47.844 0-100.31 3.6758-127.59 8.9414-10.344 1.9961-18.207 7.1602-22.203 14.547h-1.7305c4.9141-11.832 20.062-19.785 45.121-23.625zm-52.109 28.121c-0.87891 0-1.5938-0.71484-1.5938-1.5898 0-0.87891 0.71484-1.5938 1.5938-1.5938h13.598c-0.56641 0.9375-1.082 1.9922-1.5391 3.1836zm-27.34 145.8c3.707-28.781 9.1211-57.527 15.648-83.133 6.6445-26.059 15.73-57.594 16.82-61.352h1.4258c-2.5938 8.2656-9.0078 29.355-15.648 56.262-8.832 35.785-13.746 62.137-14.699 72.379-0.14453 1.5703-0.0625 4.5625 2.1406 6.9805 2.1289 2.332 5.6562 3.5156 10.488 3.5156h2.4492l-0.003907 3.4531h-4.6836c-3.8047 0-6.3555 2.5547-6.3555 6.3555v39.574c0 3.8047 2.5547 6.3555 6.3555 6.3555h4.7109v16.391l-16.5 0.011719c-1.0273 0.035156-2.5273 0.39062-3.7266 1.2969-0.003906-1.1367 0.003907-1.8086 0.011719-2.2891 0.003907-0.25-0.023437-0.45703-0.066406-0.64453-0.007813-0.9375-0.027344-2.3203-0.058594-4.1094-0.21484-12.688-0.71094-42.395 1.6914-61.047zm-0.41406 100.68c-0.046875-0.6875-0.097656-1.3672-0.14062-2.0547 0.17578 0.011719 0.33594 0.03125 0.51953 0.03125h11.086c2.957 0 4.457-1.4062 4.457-4.1836v-18.891c0-2.7773-1.5-4.1875-4.457-4.1875h-11.828c-0.24219 0-0.46094 0.023438-0.68359 0.042969 0.44531-2.457 3.332-2.6641 3.6484-2.6797h16.469v31.918zm19.066 1.9766v5.293h-18.5c-0.14844-1.7539-0.29688-3.5195-0.42578-5.293zm-7.6055-28.297c0.82813 0 1.4961 0.875 1.4961 1.5977v20.012l-1.3164-1.4922v-18.52c-0.003906-0.082031-0.13281-0.25391-0.20703-0.28125l-11.801 0.003906-1.4922-1.3164zm-18.207 16.875c-1.2539-11.863-1.2695-17.59-0.082031-19.711 1.1953-1.8672 2.7188-3.9453 3.6875-4.9688-0.007812 0.92578-0.007812 2.5 0.03125 5.4609-1.1406 0.66406-1.7188 1.8633-1.7188 3.6094l0.74219 18.852c0 1.8164 0.65234 3.0352 1.9258 3.668 0.21094 3.2773 0.46094 6.5625 0.73828 9.8047h-1.0547c-0.76562 0-1.4336 0.15234-2.0156 0.42188l-0.082032-0.53125c-0.70312-4.4727-1.2617-8.0078-2.1719-16.605zm6.2578 72.352v1.3359h-3.3438v-1.3359zm-3.3398-3.0117c0-0.44531 0-0.89062 0.003906-1.3359h5.957v1.3359zm5.9609 7.2305v1.332h-5.9688v-1.332zm-2.6211 4.4492v1.3359h-3.3477v-1.3359zm2.6211 5.2188v1.332h-5.9688v-1.332zm-5.9648 5.418h3.3477v1.3359h-3.3438c-0.003906-0.44141-0.003906-0.88281-0.003906-1.3359zm0.003906 4.2188h5.9609v1.3359h-5.957c0-0.4375 0-0.87891-0.003906-1.3359zm0.015625 4.4531h3.3281v1.332h-3.3203c-0.007813-0.42969-0.007813-0.87109-0.007813-1.332zm0.015625 3.9648h5.9297v1.3359h-5.918c-0.003907-0.41797-0.007813-0.85938-0.011719-1.3359zm0.058594 4.5742c-0.003906-0.066407-0.003906-0.15234-0.007813-0.23047h3.2539v1.332h-3.1797c-0.027344-0.39453-0.050781-0.77344-0.066406-1.1016zm0.50391 3.9883h5.3672v1.332h-5.0195c-0.13672-0.44531-0.25391-0.89062-0.34766-1.332zm2.7461 5.7852h-0.039063c-0.36719-0.41797-0.6875-0.86719-0.97656-1.3359h1.0156zm16.293 2.9297h-2.4414v-7.3828h-2.6211v0.5l-3.2305 2.6562v1.0195l3.6289 2.9883v0.21484h-1.9219l-3.168-2.6094v-0.32031h-3.918v-1.3359h3.918v-0.55078l3.2266-2.6562v-1.0938l-2.9297-2.4102v-0.625h-4.2148v-1.332h4.2148v-0.87109l2.8828-2.375v-1.1797l-3.1836-2.1914v-0.35938h-3.918v-1.332h3.918v-0.55078l3.2266-2.6562v-1.0938l-2.9297-2.4141v-0.62109h-4.2148v-1.3359h4.2148v-0.89844l3.332-2.3789v-0.79688h-0.007812v-1.9258l-3.625-2.9844v-0.32031h-3.918v-1.3359h3.918v-0.55078l3.2266-2.6602v-1.0938l-2.9297-2.4141v-0.62109h-4.2148v-1.3359h4.2148v-0.86719l2.8828-2.3789v-1.1758l-3.1836-2.1914v-0.35547h-3.918v0.003906h-5.9531v-0.003906-1.332-0.003906h3.332v0.003906h2.6211v-0.003906h3.918v-0.55078l0.42578-0.35156h2.1836l-1.1445 0.94141v0.98438l3.1797 2.1953v0.74219h2.6719v-4.8633h2.4414l0.003906 58.441zm-19.617-60.148v-1.332h1.207c0.37891 0.5 0.83594 0.94141 1.3438 1.332zm37.949 57.219h-3.9141v0.32031l-3.1719 2.6094h-1.9219v-0.21484l3.625-2.9883v-1.0195l-3.2266-2.6562v-0.5h-2.6211v7.3828h-2.4414v-58.43h2.4414v4.8633h2.668v-0.74219l3.1797-2.1953v-0.98437l-1.1445-0.94141h2.1836l0.42578 0.35156v0.55078h3.9141v1.3359h-3.9141v0.35547l-3.1836 2.1914v1.1758l2.8828 2.3789v0.86719h4.2148v1.3359h-4.2148v0.62109l-2.9297 2.4141v1.0938l3.2266 2.6602v0.55078h3.9141v1.3359h-3.9141v0.32031l-3.6289 2.9844v1.9258h-0.003906v0.79688l3.332 2.3789v0.89844h4.2148v1.3359h-4.2148v0.62109l-2.9297 2.4141v1.0938l3.2266 2.6562v0.55078h3.9141v1.332h-3.9141v0.35938l-3.1836 2.1914v1.1797l2.8828 2.375v0.87109h4.2148v1.332h-4.2148v0.625l-2.9297 2.4102v1.0938l3.2266 2.6562v0.55078h3.9141l0.011719 1.3242zm5.9336-50.637 0.003906 1.3359h-5.9375v-1.3359zm-3.3125-2.625v-1.3359h3.3125v1.3359zm0 27.613v-1.3359h3.3398c0 0.45703 0 0.90234 0.003907 1.3359zm3.3477 2.8828v1.3359h-5.9688v-1.3359zm-5.9688-8.3047v-1.332h5.957v1.332zm2.6211-5.2148v-1.3359h3.3281v1.3359zm-2.6211-4.4531v-1.332h5.9453l0.003906 1.332zm2.6211-4.2188v-1.3359h3.3203l0.003906 1.3359zm0 44.309v-0.68359h0.43359c-0.14453 0.24219-0.28906 0.46484-0.43359 0.68359zm1.9141-3.8047h-4.5391v-1.332h4.9805c-0.125 0.45703-0.27344 0.89844-0.44141 1.332zm1.0312-4.2188h-2.9453v-1.332h3.0977c-0.042969 0.44922-0.09375 0.89453-0.15234 1.332zm0.34375-4.3398h-5.9102v-1.3359h5.9492c-0.007812 0.45312-0.023437 0.89453-0.039062 1.3359zm0.058594-5.1445v1.1758h-3.3477v-1.332h3.3477zm-36.727-39.32c-1.8594 0-4.3672-1.418-5.0078-3.3281-0.12891-1.0312-1.3047-10.734-1.7227-19.047h379.25c-0.41797 8.3125-1.5938 18.016-1.7227 19.047-0.63672 1.9102-3.1484 3.3281-5.0078 3.3281zm372.99-1.0781v1.332h-2.5586c0.50391-0.39062 0.96094-0.83203 1.3438-1.332zm-37.949 35.789v1.3359h-5.9688v-1.3359zm-5.9648-2.8828v-1.3359h3.3438v1.3359zm0.007812-5.4219v-1.332h5.957v1.332zm0.003907-5.2148c0-0.44531 0-0.88672 0.003906-1.3359h3.3281v1.3359zm0.003906-4.4531 0.003906-1.332h5.9453v1.332zm0.003906-4.2188 0.003907-1.3359h3.3203v1.3359zm0.007813-4.3438 0.003906-1.3359h5.9375v1.3359zm0.003906-3.9609v-1.3359h3.3125v1.3359zm-0.035156 35.105v-0.15625h3.3477v1.332h-3.3477v-1.1758zm0.019531 3.8086h5.9492v1.3359h-5.9102c-0.015626-0.44141-0.03125-0.88281-0.039063-1.3359zm0.23047 4.3438h3.0977v1.332h-2.9453c-0.058594-0.4375-0.10938-0.88281-0.15234-1.332zm3.0977 9.3516c-0.14453-0.21484-0.28906-0.44141-0.43359-0.68359h0.43359zm-1.918-3.8008c-0.16406-0.43359-0.31641-0.87891-0.44531-1.332h4.9805v1.332zm18.211 7.3867h-2.4414v-7.3867h-2.6211v0.5l-3.2266 2.6562v1.0195l3.625 2.9883v0.22266h-1.9141l-3.1758-2.6172v-0.32031h-3.9141v-1.3359h3.9141l-0.003906-0.54688 3.2266-2.6562v-1.0938l-2.9297-2.4102v-0.625h-4.2148v-1.332h4.2148v-0.87109l2.8828-2.375v-1.1797l-3.1836-2.1914v-0.35938h-3.9141v-1.332h3.9141v-0.55078l3.2266-2.6562v-1.0938l-2.9297-2.4141v-0.62109h-4.2148v-1.3359h4.2148v-0.89844l3.332-2.3789v-0.79688h-0.003906v-1.9258l-3.6289-2.9844v-0.32031h-3.9141v-1.3359h3.9141v-0.55078l3.2266-2.6602v-1.0938l-2.9297-2.4141v-0.62109h-4.2148v-1.3359h4.2148v-0.86719l2.8828-2.3789v-1.1758l-3.1836-2.1914v-0.35547h-3.9141v-1.3359h3.9141v-0.55078l0.42578-0.35156h2.1836l-1.1445 0.94141v0.98438l3.1797 2.1953v0.74219h2.668v-4.8633h2.4414l0.011718 58.441zm18.332-2.9336h-3.918v0.32031l-3.168 2.6094h-1.9219v-0.21875l3.6289-2.9883v-1.0195l-3.2305-2.6562v-0.5h-2.6211v7.3828h-2.4414v-58.434h2.4414v4.8633h2.6719v-0.74219l3.1797-2.1953v-0.98438l-1.1445-0.94141h2.1836l0.42578 0.35156v0.55078h3.918v0.003907h2.6211v-0.003907h3.332v0.003907c0 0.44141 0 0.88672 0.003907 1.332v0.003906h-5.9531v-0.003906h-3.918v0.35547l-3.1836 2.1914v1.1758l2.8828 2.3789v0.86719h4.2148v1.3359h-4.2148v0.62109l-2.9297 2.4141v1.0938l3.2266 2.6602v0.55078h3.918v1.3359h-3.918v0.32031l-3.625 2.9844v1.9258h-0.007813v0.79687l3.332 2.3789v0.89844h4.2148v1.3359h-4.2148v0.62109l-2.9297 2.4141v1.0938l3.2266 2.6562v0.55078h3.918v1.332h-3.918v0.35938l-3.1836 2.1914v1.1797l2.8828 2.375v0.87109h4.2148v1.332h-4.2148v0.625l-2.9297 2.4102v1.0938l3.2266 2.6562v0.55078h3.918v1.332zm2.6211-44.957v-1.3359h3.3438c0 0.44531 0 0.89062 0.003906 1.3359zm3.3438 2.8867v1.332h-5.9688v-1.332zm-5.9648-7.2305v-1.3359h5.957c0 0.44531 0 0.89062 0.003907 1.3359zm2.6602 49.301h-0.039062v-1.3359h1.0156c-0.28906 0.46875-0.60938 0.92187-0.97656 1.3359zm2.3594-4.4531h-5.0195v-1.332h5.3672c-0.09375 0.44141-0.21094 0.88672-0.34766 1.332zm0.84766-5.3203c-0.011719 0.32812-0.035157 0.70703-0.070313 1.1016h-3.1797v-1.332h3.2539c0 0.078125 0 0.16797-0.003906 0.23047zm0.050781-3.2383h-5.918v-1.3359h5.9297c-0.003907 0.47656-0.007813 0.91797-0.011719 1.3359zm0.023437-3.9688h-3.3203v-1.332h3.3281c-0.003907 0.46094-0.003907 0.90234-0.007813 1.332zm0.015625-4.4492h-5.957v-1.3359h5.9609c-0.003907 0.45703-0.003907 0.89844-0.003907 1.3359zm0.007813-4.2188h-3.3438v-1.3359h3.3477c-0.003906 0.45312-0.003906 0.89453-0.003906 1.3359zm0.003906-5.4219h-5.9688v-1.332h5.9688v1.332zm-3.3477-5.2148v-1.3359h3.3477v1.3359zm4.2812-60.281h-382.11l-0.066406-0.64062c0-2.457 1.3555-2.7422 2.3789-2.7422h377.48c1.0195 0 2.3789 0.28516 2.3828 2.6406zm-0.69922-18.793 0.74609-18.93c0-1.7266-0.58203-2.9219-1.7305-3.582 0.042969-3.0234 0.046875-4.5664 0.039062-5.4531 0.96875 1.0234 2.4883 3.0938 3.6602 4.9219 1.2188 2.1719 1.1992 7.8945-0.054688 19.762-0.91016 8.625-1.4727 12.16-2.1797 16.641l-0.078125 0.49219c-0.58203-0.26562-1.25-0.41797-2.0156-0.41797h-1.0547c0.28125-3.2891 0.52734-6.5234 0.73828-9.8008 1.2773-0.63281 1.9297-1.8438 1.9297-3.6328zm-2.2188-20.156-1.4922 1.3164h-11.828c-0.046874 0.023438-0.17187 0.19531-0.17969 0.28125v18.516l-1.3164 1.4922v-20.012c0-0.72266 0.66797-1.5977 1.4961-1.5977l13.32 0.007812zm-2.2734-74.363c2.4023 18.648 1.9062 48.359 1.6953 61.043-0.027344 1.793-0.050781 3.1719-0.058594 4.1094-0.039062 0.1875-0.070312 0.39063-0.066406 0.64453 0.003906 0.38672 0.011719 1.0156 0.007812 2.2891-1.2031-0.90625-2.7148-1.2578-3.7578-1.2969h-16.402v-16.391h4.6445c3.8047 0 6.3555-2.5547 6.3555-6.3555v-39.574c0-3.8008-2.5547-6.3555-6.3555-6.3555h-4.6836l-0.003906-3.4531h2.4531c4.8359 0 8.3633-1.1836 10.488-3.5195 2.2031-2.418 2.2852-5.4102 2.1406-6.9805-0.95312-10.238-5.8672-36.59-14.699-72.379-6.4141-25.992-12.5-46.238-15.648-56.262h1.4258c1.0859 3.7578 10.172 35.293 16.82 61.352 6.5234 25.594 11.934 54.34 15.645 83.129z"/>
  <path d="m508.89 481.75-3.2266 2.6562v1.0195l3.625 2.9883v1.168h2.2227v-8.3359h-2.6211z"/>
  <path d="m508.84 473.04-2.8828 2.375v1.6406l2.9297 2.4102v0.44531h2.6211v-7.2305h-2.668z"/>
  <use x="70" y="579.753906" xlink:href="#t"/>
  <use x="74.832031" y="579.753906" xlink:href="#a"/>
  <use x="78.082031" y="579.753906" xlink:href="#c"/>
  <use x="82.546875" y="579.753906" xlink:href="#e"/>
  <use x="86.992188" y="579.753906" xlink:href="#d"/>
  <use x="90.136719" y="579.753906" xlink:href="#c"/>
  <use x="94.605469" y="579.753906" xlink:href="#m"/>
  <use x="101.609375" y="579.753906" xlink:href="#l"/>
  <use x="106.324219" y="579.753906" xlink:href="#k"/>
  <use x="112.910156" y="579.753906" xlink:href="#j"/>
  <use x="115.359375" y="579.753906" xlink:href="#b"/>
  <use x="119.882812" y="579.753906" xlink:href="#i"/>
  <use x="124.570312" y="579.753906" xlink:href="#h"/>
  <use x="131.554688" y="579.753906" xlink:href="#s"/>
  <use x="136.570312" y="579.753906" xlink:href="#g"/>
  <use x="141.261719" y="579.753906" xlink:href="#a"/>
  <use x="144.507812" y="579.753906" xlink:href="#a"/>
  <use x="147.753906" y="579.753906" xlink:href="#e"/>
  <use x="152.199219" y="579.753906" xlink:href="#f"/>
  <use x="156.101562" y="579.753906" xlink:href="#b"/>
  <use x="70" y="586.339844" xlink:href="#r"/>
  <use x="72.863281" y="586.339844" xlink:href="#a"/>
  <use x="76.113281" y="586.339844" xlink:href="#b"/>
  <use x="80.636719" y="586.339844" xlink:href="#q"/>
  <use x="89.789062" y="586.339844" xlink:href="#d"/>
  <use x="92.9375" y="586.339844" xlink:href="#i"/>
  <use x="97.625" y="586.339844" xlink:href="#c"/>
  <use x="104.386719" y="586.339844" xlink:href="#p"/>
  <use x="109.898438" y="586.339844" xlink:href="#b"/>
  <use x="114.421875" y="586.339844" xlink:href="#g"/>
  <use x="119.109375" y="586.339844" xlink:href="#h"/>
  <use x="126.089844" y="586.339844" xlink:href="#o"/>
  <use x="130.917969" y="586.339844" xlink:href="#a"/>
  <use x="134.164062" y="586.339844" xlink:href="#b"/>
  <use x="138.6875" y="586.339844" xlink:href="#n"/>
  <use x="140.945312" y="586.339844" xlink:href="#c"/>
  <use x="145.410156" y="586.339844" xlink:href="#f"/>
  <use x="149.316406" y="586.339844" xlink:href="#d"/>
 </g>
</svg>
