<?xml version="1.0" encoding="UTF-8"?>
<svg width="700pt" height="700pt" version="1.1" viewBox="0 0 700 700" xmlns="http://www.w3.org/2000/svg">
 <path d="m486.75 414.6c-0.58203-0.050781-1.7773-0.21094-2.6562-0.34766-0.87891-0.14062-2.3242-0.43359-3.2109-0.65234s-2.1719-0.58203-2.8555-0.80469c-0.68359-0.22656-1.75-0.60938-2.3711-0.85547s-1.7148-0.72266-2.4336-1.0586c-0.71875-0.33984-1.8906-0.94922-2.6055-1.3633-0.71484-0.41016-1.9102-1.1641-2.6602-1.6719-0.75-0.50781-1.9492-1.3945-2.668-1.9688-0.71875-0.57422-1.9375-1.6562-2.7109-2.4062-0.77344-0.75-1.8672-1.8945-2.4297-2.5469-0.5625-0.65234-1.418-1.7109-1.9023-2.3555-0.48438-0.64453-1.3008-1.8438-1.8203-2.668-0.51953-0.82422-1.4375-2.5078-2.0469-3.7461-0.60937-1.2383-1.3516-2.9453-1.6562-3.7891-0.30469-0.84766-0.73828-2.1797-0.96484-2.9609-0.22656-0.78516-0.56641-2.1992-0.75391-3.1406-0.19141-0.94531-0.4375-2.4102-0.55078-3.2578-0.14844-1.1484-0.21094-2.3516-0.21094-4.7383 0-2.3828 0.042968-3.6211 0.21094-4.8594 0.12891-0.91406 0.36719-2.4375 0.55859-3.3906s0.56641-2.4727 0.83203-3.3789 0.76953-2.3672 1.1094-3.2461c0.34375-0.87891 0.89062-2.1641 1.2148-2.8555 0.32422-0.69141 0.92578-1.8359 1.332-2.5469 0.41016-0.71094 1.1758-1.9297 1.6992-2.707s1.2969-1.8438 1.7109-2.3711c0.41406-0.52734 1.2891-1.5547 1.9414-2.2812 0.65234-0.72656 1.7812-1.8555 2.5117-2.5117 0.72656-0.65234 1.7773-1.543 2.332-1.9766 0.55469-0.43359 1.6211-1.207 2.3711-1.7109s1.9883-1.2734 2.7539-1.707c0.76562-0.43359 1.8047-0.98047 2.3086-1.2148 0.50391-0.23438 1.293-0.58203 1.75-0.77734 0.45313-0.19531 1.3984-0.55859 2.0898-0.80859 0.69531-0.25 1.9453-0.64453 2.7852-0.875 0.83984-0.23047 2.1875-0.55078 3.0039-0.71484 0.81641-0.16016 2.1992-0.375 3.082-0.47266 0.87891-0.097656 2.3477-0.21094 3.2578-0.25391 0.91406-0.042969 2.5391-0.015625 3.6133 0.058594 1.0742 0.074219 2.5156 0.21484 3.1992 0.31641 0.68359 0.097656 1.6445 0.26172 2.1328 0.35938s1.4219 0.30859 2.0742 0.46875 1.9297 0.53906 2.8438 0.83984c0.91406 0.30078 2.2734 0.80859 3.0234 1.1289s2.0625 0.94531 2.9141 1.3906c0.85547 0.44531 2 1.0898 2.5469 1.4297 0.54688 0.33984 1.4492 0.94531 2.0039 1.3398 0.55469 0.39453 1.5156 1.1172 2.1328 1.6055 0.61719 0.48828 2.0312 1.7969 3.1406 2.9102 1.1094 1.1094 2.4883 2.6328 3.0703 3.3828s1.4961 2.0312 2.0312 2.8438c0.53906 0.81641 1.3047 2.0742 1.7031 2.8008s1.0508 2.0312 1.4453 2.9023c0.39453 0.87109 1.0547 2.5977 1.4648 3.8359 0.41016 1.2383 0.91016 2.9727 1.1094 3.8516 0.19922 0.87891 0.46875 2.3516 0.60156 3.2695 0.13281 0.91797 0.28906 2.4688 0.34766 3.4453 0.058594 0.99219 0.0625 2.7969 0.007812 4.0781-0.054687 1.2656-0.21094 3.0742-0.34766 4.0195-0.13672 0.94531-0.38672 2.3281-0.55078 3.0781-0.16797 0.75-0.48047 1.9805-0.69922 2.7383s-0.67578 2.1094-1.0156 3.0078c-0.33984 0.89844-1.0312 2.4648-1.5312 3.4805s-1.2188 2.3555-1.5938 2.9766c-0.375 0.61719-1.0312 1.6328-1.457 2.25-0.42578 0.61719-1.1562 1.6055-1.625 2.1914s-1.3867 1.6523-2.0391 2.3711c-0.65234 0.71875-1.793 1.8398-2.5391 2.4961-0.74219 0.65625-1.8047 1.5391-2.3555 1.9688-0.55469 0.42969-1.7383 1.2578-2.6328 1.8438-0.89453 0.58594-2.4648 1.4922-3.4961 2.0156-1.0273 0.52344-2.3398 1.1445-2.9102 1.3789-0.57031 0.23438-1.6641 0.64453-2.4297 0.90625-0.76562 0.26562-2.1016 0.66406-2.9688 0.89062-0.86719 0.22656-2.1758 0.51562-2.9023 0.64453-0.73047 0.13281-2.0703 0.31641-2.9844 0.41406-0.99219 0.10547-2.6602 0.16797-4.1484 0.16016-1.3711-0.007813-2.9648-0.058594-3.5469-0.10938zm5.9727-6.2734c0.87891-0.066406 2.2461-0.22266 3.0312-0.35156 0.78906-0.12891 2.1484-0.41406 3.0234-0.64062 0.875-0.22266 2.1758-0.61719 2.8906-0.875 0.71875-0.25781 1.8359-0.71094 2.4883-1.0039s1.5039-0.70703 1.8945-0.92188c0.39062-0.21094 1.0312-0.57422 1.4219-0.80469 0.39063-0.23047 1.1719-0.72656 1.7344-1.1016s1.5508-1.1016 2.1914-1.6172c0.64453-0.51172 1.6445-1.3828 2.2227-1.9336s1.5586-1.5859 2.1758-2.3047c0.61719-0.71875 1.5-1.8281 1.9609-2.4727 0.46094-0.64453 1.1797-1.7383 1.5977-2.4297s1.0664-1.8984 1.4453-2.6797c0.375-0.78125 0.92578-2.0625 1.2227-2.8438s0.72656-2.1133 0.96094-2.9609c0.23047-0.84766 0.52734-2.1016 0.65625-2.7852 0.12891-0.68359 0.30469-1.8047 0.39062-2.4883 0.09375-0.76172 0.15234-2.3906 0.14453-4.207-0.007813-2.3984-0.058594-3.2773-0.26563-4.6211-0.14062-0.91406-0.4375-2.4062-0.66406-3.3164-0.22656-0.91406-0.62109-2.2734-0.88281-3.0234-0.25781-0.75-0.66797-1.8164-0.90234-2.3711-0.23828-0.55469-0.77734-1.6719-1.1992-2.4844s-1.1562-2.0664-1.6328-2.7852c-0.47656-0.71875-1.2578-1.8164-1.7383-2.4336-0.48047-0.61719-1.5156-1.7852-2.3008-2.5898s-1.9023-1.8672-2.4883-2.3594c-0.58594-0.49219-1.4414-1.1719-1.9023-1.5156s-1.4258-0.98438-2.1367-1.4258c-0.71094-0.44141-2.1484-1.2148-3.1914-1.7188-1.043-0.50391-2.5352-1.1406-3.3164-1.4102-0.78125-0.27344-2.1211-0.67578-2.9766-0.89453s-2.2969-0.51172-3.1992-0.64844c-1.0234-0.15625-2.543-0.27344-4.0352-0.31641-1.5234-0.042969-2.9414-0.015626-3.9102 0.078124-0.83594 0.082032-2.2109 0.27344-3.0586 0.42969s-2.207 0.46484-3.0234 0.6875c-0.81641 0.22266-2.1992 0.6875-3.0781 1.0312s-2.293 0.97656-3.1406 1.4102c-0.84766 0.43359-2.2344 1.2383-3.082 1.7969-0.84766 0.55469-2.0977 1.4609-2.7852 2.0078-0.68359 0.55078-1.8828 1.6406-2.668 2.4219-0.78125 0.78125-1.8711 1.9805-2.4219 2.668-0.55078 0.68359-1.4375 1.9102-1.9766 2.7266-0.53516 0.81641-1.3477 2.1992-1.8047 3.082-0.45703 0.87891-1.082 2.2383-1.3945 3.0195-0.30859 0.78125-0.73828 1.9883-0.94922 2.6797-0.21094 0.69141-0.51953 1.8672-0.6875 2.6094-0.16797 0.74219-0.39453 1.9609-0.51172 2.7109-0.16797 1.082-0.21484 2.0742-0.21484 4.8008 0 2.2812 0.0625 3.7969 0.16797 4.5039 0.085937 0.58594 0.28516 1.6875 0.4375 2.4453 0.14844 0.75781 0.44141 1.9492 0.64453 2.6523 0.21094 0.69922 0.55859 1.7852 0.79297 2.4141 0.23438 0.62891 0.69141 1.7266 1.0156 2.4414s0.86328 1.7812 1.1914 2.3711c0.33203 0.58984 0.94531 1.5977 1.3672 2.2422 0.42188 0.64453 1.1914 1.7109 1.7109 2.3711s1.7773 2.0273 2.7969 3.0391c1.0664 1.0586 2.4531 2.293 3.2734 2.9062 0.78125 0.58594 1.9297 1.3789 2.5469 1.7656 0.62109 0.38281 1.7656 1.0312 2.5469 1.4375s2.0352 0.98047 2.7852 1.2773 1.9766 0.73047 2.7266 0.96094 2.1328 0.57812 3.0781 0.76953c0.94531 0.19141 2.3047 0.40625 3.0234 0.47266s1.5156 0.14062 1.7773 0.16406c0.26172 0.019531 0.95312 0.046875 1.5391 0.058593 0.58594 0.011719 1.7852-0.035156 2.668-0.10156zm-3.5547-8.5391c-0.42188-0.054687-1.3047-0.21484-1.9531-0.35156-0.65234-0.14062-1.7422-0.43359-2.4297-0.65625s-1.9492-0.75-2.8125-1.1719c-0.86328-0.42188-2.0859-1.1211-2.7266-1.5547-0.63672-0.43359-1.5586-1.1211-2.0469-1.5312-0.48828-0.41016-1.2695-1.1367-1.7305-1.6133-0.46484-0.47656-1.125-1.2148-1.4727-1.6367-0.34766-0.42188-0.99219-1.3164-1.4336-1.9883-0.44141-0.66797-1.125-1.8672-1.5156-2.668-0.39062-0.79688-0.95312-2.168-1.2461-3.0508-0.29297-0.87891-0.66406-2.2656-0.82813-3.082-0.16797-0.81641-0.35937-2.1992-0.43359-3.082-0.085938-0.90234-0.10547-2.1953-0.0625-2.9609 0.042969-0.75 0.14844-1.9219 0.25781-2.6055 0.10547-0.68359 0.28516-1.6719 0.41406-2.1914s0.33594-1.2695 0.45312-1.6602c0.12891-0.39062 0.40234-1.1953 0.62891-1.7812s0.61328-1.4648 0.85547-1.9492c0.24219-0.48438 0.6875-1.2852 0.98047-1.7734 0.29688-0.49219 0.91406-1.3984 1.3672-2.0156 0.45312-0.61719 1.3398-1.6484 1.9648-2.293s1.5352-1.4961 2.0273-1.8906c0.48828-0.39453 1.4297-1.0742 2.0898-1.5117 0.66016-0.4375 1.7539-1.0625 2.4297-1.3906s1.8633-0.81641 2.6484-1.0859c0.78125-0.26953 2.0703-0.62109 2.8633-0.78125 0.79297-0.16016 2.0469-0.33594 2.7891-0.39453 0.73828-0.054688 1.8242-0.082032 2.4102-0.054688 0.58594 0.027344 1.5742 0.10156 2.1914 0.17188 0.62109 0.070313 1.8242 0.30078 2.6758 0.51562 0.85156 0.21484 2.0508 0.58984 2.668 0.83594 0.61328 0.24609 1.5391 0.65625 2.0586 0.91406 0.51562 0.25781 1.3672 0.73438 1.8906 1.0586 0.52344 0.32422 1.3789 0.92578 1.9023 1.3359 0.52344 0.41016 1.332 1.0977 1.7969 1.5273s1.2188 1.2227 1.6758 1.7617c0.45703 0.53906 1.2461 1.5938 1.7539 2.3438 0.50781 0.75 1.2578 2.0508 1.668 2.8945 0.41016 0.83984 0.98047 2.2539 1.2734 3.1406 0.28906 0.88672 0.63672 2.1719 0.77344 2.8555 0.13672 0.68359 0.30078 1.6953 0.36719 2.25 0.066406 0.55078 0.12109 1.8164 0.12109 2.8086 0 0.99219-0.082031 2.4336-0.17969 3.2031-0.097656 0.76953-0.33594 2.0391-0.52344 2.8203s-0.53516 1.957-0.77344 2.6055c-0.23438 0.65234-0.74609 1.8281-1.1328 2.6172-0.38672 0.78906-1.0508 1.9492-1.4727 2.5781-0.42188 0.62891-1.1016 1.5586-1.5117 2.0625-0.41016 0.50391-1.1719 1.3438-1.6953 1.8672-0.52344 0.52344-1.4453 1.3359-2.0547 1.8086-0.60937 0.46875-1.5938 1.1562-2.1914 1.5273s-1.5664 0.89844-2.1602 1.1758c-0.58984 0.27734-1.6289 0.69922-2.3125 0.93359-0.67969 0.23828-1.668 0.53516-2.1992 0.66016-0.52734 0.12891-1.5156 0.30859-2.1914 0.40625-0.73047 0.10547-2.0234 0.16797-3.1836 0.16406-1.0742-0.007812-2.3008-0.058594-2.7266-0.11328zm5.7969-6.4531c0.55078-0.10547 1.4297-0.32422 1.9531-0.48828 0.52734-0.16406 1.543-0.58203 2.2617-0.92578 0.71875-0.34766 1.7812-0.96875 2.3672-1.3828 0.58594-0.41406 1.5469-1.2344 2.1367-1.8203s1.4336-1.5469 1.875-2.1328c0.4375-0.58594 1.1406-1.7578 1.5625-2.6055 0.41797-0.84766 0.90234-1.9609 1.0703-2.4805 0.16797-0.51562 0.41016-1.3945 0.53125-1.957 0.12109-0.55859 0.28125-1.6289 0.35938-2.3789 0.082031-0.79297 0.10547-1.9102 0.058593-2.668-0.042969-0.71875-0.20703-1.9492-0.36328-2.7383-0.15625-0.78906-0.45312-1.9102-0.65625-2.4883s-0.63281-1.5781-0.95312-2.2188-0.80469-1.4922-1.0742-1.8945c-0.27344-0.40234-0.80469-1.1133-1.1836-1.5781-0.37891-0.46484-1.1016-1.2305-1.6094-1.6953-0.50781-0.46484-1.375-1.1562-1.9258-1.5352-0.55469-0.37891-1.4883-0.92969-2.0742-1.2227-0.58594-0.29297-1.5547-0.69922-2.1523-0.89844-0.59766-0.19922-1.5586-0.45703-2.1328-0.57031-0.73828-0.14453-1.625-0.21094-3.0039-0.21094-1.4141-0.003906-2.2461 0.054688-3.0078 0.21094-0.57812 0.11719-1.4844 0.34766-2.0156 0.51172-0.52734 0.16406-1.5508 0.58984-2.2656 0.94531-0.71875 0.35547-1.7969 1-2.3984 1.4297-0.60156 0.42969-1.6445 1.3516-2.3164 2.0469-0.67188 0.69531-1.5547 1.7656-1.9648 2.3789s-0.97656 1.5742-1.2578 2.1367c-0.28516 0.5625-0.69922 1.5586-0.92578 2.2109-0.23047 0.65234-0.53906 1.7695-0.6875 2.4766-0.23438 1.0938-0.27344 1.6406-0.27344 3.6016 0 1.7578 0.042968 2.5938 0.21875 3.4961 0.12891 0.65234 0.42188 1.8008 0.66797 2.5508 0.24609 0.75 0.6875 1.8477 0.98047 2.4336 0.29688 0.58984 0.87109 1.5742 1.2812 2.1914 0.47656 0.72266 1.2539 1.6289 2.1719 2.5469 0.84766 0.84375 1.8398 1.6992 2.4375 2.0938 0.55469 0.36719 1.4883 0.90625 2.0742 1.1992s1.5664 0.69922 2.1758 0.90234 1.5703 0.44922 2.1328 0.54297 1.2344 0.19531 1.4961 0.22266c0.26172 0.027343 1.1406 0.03125 1.957 0.007812 0.81641-0.023437 1.9297-0.12891 2.4805-0.23438zm-269.85 19.133c-0.58203-0.050781-1.7773-0.21094-2.6562-0.34766-0.87891-0.14062-2.3242-0.43359-3.2109-0.65234s-2.1719-0.58203-2.8555-0.80469c-0.68359-0.22656-1.75-0.60937-2.3711-0.85547-0.62109-0.24609-1.7148-0.72266-2.4336-1.0586-0.71875-0.33984-1.8906-0.94922-2.6055-1.3633-0.71484-0.41016-1.9102-1.1641-2.6602-1.6719-0.75-0.50781-1.9492-1.3945-2.668-1.9688-0.71875-0.57422-1.9375-1.6562-2.7109-2.4062-0.77344-0.75-1.8672-1.8945-2.4297-2.5469-0.5625-0.65234-1.418-1.7109-1.9023-2.3555s-1.3008-1.8438-1.8203-2.668-1.4375-2.5078-2.0469-3.7461c-0.60938-1.2383-1.3516-2.9453-1.6562-3.7891-0.30469-0.84766-0.73828-2.1797-0.96484-2.9609-0.22656-0.78516-0.56641-2.1992-0.75391-3.1406-0.19141-0.94531-0.4375-2.4102-0.55078-3.2578-0.14844-1.1484-0.21094-2.3516-0.21094-4.7383 0-2.3828 0.042969-3.6211 0.21094-4.8594 0.12891-0.91406 0.36719-2.4375 0.55859-3.3906s0.56641-2.4727 0.83203-3.3789c0.26562-0.90625 0.76953-2.3672 1.1094-3.2461 0.34375-0.87891 0.89063-2.1641 1.2148-2.8555 0.32422-0.69141 0.92578-1.8359 1.332-2.5469 0.41016-0.71094 1.1758-1.9297 1.6992-2.707 0.52344-0.77734 1.2969-1.8438 1.7109-2.3711 0.41406-0.52734 1.2891-1.5547 1.9414-2.2812s1.7891-1.8672 2.5312-2.5273c0.73828-0.66406 1.9414-1.668 2.668-2.2305l1.3242-1.0273-99.148-0.11719-0.61328-0.33984c-0.33984-0.1875-0.78125-0.54687-0.98438-0.80078-0.21094-0.25391-0.47266-0.6875-0.59766-0.96484-0.21094-0.46094-0.23047-0.80469-0.23047-4.0742v-3.5703l-1.4688-0.046875c-1.3438-0.042969-1.5273-0.078125-2.1562-0.40234-0.42188-0.21484-0.83594-0.54688-1.0742-0.85938-0.21094-0.27734-0.44141-0.71094-0.50781-0.96094-0.085938-0.30859-0.10547-28.824-0.085938-89.793l0.019531-89.34 0.35938-0.58203c0.19141-0.32422 0.60938-0.75 0.92188-0.96094 0.30859-0.20703 0.83984-0.43359 1.1797-0.50391 0.44141-0.089844 45.078-0.11719 155.73-0.097657l155.11 0.03125 0.53516 0.27734c0.29297 0.15625 0.73828 0.47266 0.98828 0.71094 0.25 0.23828 0.59766 0.69922 0.76953 1.0234l0.31641 0.59375 0.042968 12.648c0.019532 7.0938 0.085938 12.648 0.12891 12.648 0.0625 0 0.65625-0.054687 1.332-0.125 0.67578-0.066406 2.8516-0.35938 4.8398-0.64453 1.9883-0.28516 4.7344-0.65625 6.1016-0.82031 1.3711-0.16797 3.4219-0.38281 4.5625-0.48047 1.1406-0.097656 3.1406-0.24219 4.4453-0.32422 1.4141-0.089844 5.0859-0.14844 9.125-0.14844 4.207 0 7.7148 0.054688 9.3008 0.15234 1.4023 0.085938 3.8594 0.25781 5.4609 0.38281 1.6016 0.125 4.1328 0.36328 5.6289 0.53125 1.4961 0.16797 3.8125 0.46094 5.1562 0.65234s3.4727 0.53906 4.7383 0.77344 3.1797 0.60938 4.2578 0.83984c1.0742 0.23047 3.0234 0.67578 4.3242 0.99609 1.3047 0.32031 3.543 0.90625 4.9766 1.3047 1.4336 0.39844 3.9414 1.168 5.5703 1.7109 1.6289 0.54297 3.9766 1.3828 5.2148 1.8711s2.9453 1.1914 3.793 1.5664c0.84766 0.375 2.6328 1.2305 3.9688 1.9062 1.3359 0.67188 3.1211 1.6328 3.9688 2.1328 0.84766 0.5 2.0742 1.1484 2.7266 1.4375 0.65234 0.29297 1.7188 0.84766 2.3711 1.2344 0.65234 0.38672 1.9141 1.25 2.8047 1.9141 0.89062 0.66406 2.7539 2.168 4.1406 3.3438 1.3867 1.1719 3.5664 3.0586 4.8398 4.1914 1.2734 1.1328 3.4062 3.0508 4.7422 4.2656 1.3359 1.2148 3.4844 3.2148 4.7773 4.4453s3.4883 3.4453 4.8789 4.918c1.3906 1.4727 3.1797 3.4258 3.9805 4.3398 0.79688 0.91406 2.1289 2.4844 2.957 3.4961 0.82812 1.0117 2.168 2.6914 2.9766 3.7344s2.1953 2.8828 3.0781 4.0898c0.88672 1.207 2.5039 3.4648 3.5977 5.0195 1.0938 1.5547 2.6953 3.9023 3.5625 5.2148 0.86719 1.3125 2.3711 3.7188 3.3438 5.3477 0.97266 1.6289 2.5078 4.2656 3.4062 5.8633 0.89844 1.5977 1.7617 3.1523 1.9141 3.4531 0.15234 0.30078 0.27734 0.64453 0.27734 0.75781s0.44531 0.98438 0.98828 1.9375 1.6562 2.957 2.4766 4.457c0.81641 1.5 2.2148 4.1133 3.1055 5.8047 0.89062 1.6953 2.6719 5.1875 3.957 7.7617 1.2852 2.5742 3.1445 6.4141 4.1289 8.5312 0.98437 2.1172 2.4141 5.2383 3.1758 6.9336 0.76172 1.6953 1.8398 4.1211 2.3945 5.3906s1.3789 3.2422 1.8359 4.3828c0.45703 1.1406 1.0703 2.7148 1.3633 3.4961s0.95703 2.6758 1.4727 4.207 1.1484 3.5039 1.4062 4.3867c0.25391 0.88281 0.67969 2.4805 0.94531 3.5547 0.26562 1.0742 0.61328 2.6445 0.77344 3.4922 0.16016 0.84766 0.39844 2.3672 0.52734 3.3789 0.12891 1.0117 0.29688 2.9336 0.375 4.2734 0.10547 1.8438 0.10547 2.9297 0.003906 4.4648-0.074219 1.1172-0.21875 2.6875-0.32422 3.4883-0.10547 0.80078-0.31641 2.1016-0.46875 2.8906-0.15625 0.78906-0.52344 2.2656-0.81641 3.2891-0.29297 1.0195-0.83203 2.6406-1.1992 3.6055-0.36719 0.96094-1.1055 2.6562-1.6406 3.7656-0.53516 1.1094-1.3086 2.6016-1.7188 3.3164-0.41016 0.71484-1.1484 1.9102-1.6367 2.6523-0.48828 0.74219-1.4258 2.0234-2.0859 2.8438-0.66016 0.82422-1.8164 2.1094-2.5703 2.8594-0.75391 0.75-1.9023 1.7695-2.5508 2.2656-0.64844 0.49609-1.5664 1.1562-2.0469 1.4609-0.47656 0.30859-1.4688 0.86719-2.2031 1.2422s-1.8359 0.87891-2.4492 1.1133c-0.61328 0.23828-1.6406 0.56641-2.2852 0.72656-0.64453 0.16406-1.9648 0.40234-2.9336 0.53125-1.5977 0.21484-2.6914 0.24219-11.746 0.30078-5.4922 0.035157-10.891 0.11719-11.996 0.18359-1.1094 0.066406-3.0273 0.22656-4.2656 0.35547s-2.9727 0.35156-3.8516 0.49219c-0.87891 0.14063-1.9258 0.25391-2.3242 0.25-0.5625-0.007812-0.86328-0.085937-1.3555-0.35156-0.375-0.20312-0.77344-0.54688-0.98828-0.84375-0.22656-0.32422-0.44531-0.50391-0.60938-0.50391-0.13672 0-0.51562-0.078125-0.83984-0.17578-0.32422-0.09375-0.81641-0.36719-1.0938-0.60547-0.27734-0.23828-0.60156-0.625-0.72266-0.86328-0.12109-0.23828-0.49219-1.5234-0.82812-2.8594-0.33594-1.3359-0.82812-3.1484-1.0938-4.0273s-0.88281-2.6836-1.3672-4.0078-1.1758-3.1094-1.5391-3.9688c-0.35938-0.85938-1.0469-2.3359-1.5273-3.2812-0.47656-0.94531-1.2148-2.2617-1.6328-2.9219-0.42188-0.66406-1.0977-1.6484-1.5078-2.1914s-1.4961-1.7383-2.4141-2.6562c-1.0664-1.0703-2.1211-1.9883-2.9336-2.5625-0.69531-0.49219-1.7344-1.1328-2.3125-1.4297-0.57422-0.29297-1.4375-0.67578-1.9219-0.84766-0.48047-0.17188-1.3359-0.41406-1.8945-0.53906-0.5625-0.125-1.582-0.30859-2.2656-0.40625-0.68359-0.097656-1.8594-0.23438-2.6055-0.30078-0.75-0.066406-2.6953-0.19922-4.3242-0.29687-1.6289-0.097657-4.1367-0.23047-5.5703-0.30078-1.4336-0.066406-3.4062-0.17969-4.3828-0.24609-0.97656-0.066406-3.1719-0.25391-4.875-0.41016-1.7031-0.16016-4.875-0.41797-7.0508-0.58203-2.1758-0.16406-5.0469-0.35547-6.3828-0.42969-1.3359-0.074219-3.6289-0.11719-5.0938-0.09375l-2.6641 0.042968-0.5625 0.33203c-0.30859 0.18359-1.082 0.74609-1.7188 1.2539-0.63672 0.50781-1.6094 1.3984-2.168 1.9805-0.55859 0.58203-1.3125 1.457-1.6797 1.9453-0.36719 0.48828-1.5156 2.2227-2.5547 3.8516-1.0352 1.6289-2.582 4.1641-3.4297 5.6289-0.84766 1.4648-1.9141 3.3594-2.3711 4.207-0.45703 0.84766-1.2852 2.4219-1.8438 3.4961s-1.4766 2.9414-2.043 4.1484c-0.56641 1.207-1.457 3.125-1.9766 4.2656-0.51953 1.1406-1.3594 3.0586-1.8633 4.2656-0.50391 1.207-1.0469 2.5117-1.1992 2.9023-0.14844 0.39062-0.46484 0.91406-0.69141 1.1641-0.22656 0.25-0.61328 0.55859-0.85938 0.68359-0.24609 0.125-0.8125 0.29297-1.2539 0.375-0.54297 0.097656-1.9805 0.14453-4.418 0.13672-2.1094-0.007813-5.4883-0.12109-8.1172-0.27344-2.4766-0.14453-5.4883-0.33594-6.6953-0.43359-1.207-0.09375-3.4727-0.22656-5.0352-0.29297s-3.0117-0.17578-3.2188-0.24219c-0.29297-0.09375-0.47266-0.078126-0.82812 0.078124-0.26953 0.11719-0.76953 0.19922-1.2266 0.20313-0.44531 0.003906-0.95312-0.074219-1.2031-0.18359-0.23828-0.10156-0.66016-0.39062-0.9375-0.64062-0.27734-0.25-0.60547-0.67578-0.72266-0.94922-0.12891-0.26953-0.32422-1.2656-0.44922-2.2109-0.12891-0.94531-0.3125-2.6406-0.41016-3.7734-0.10547-1.1328-0.24219-3.3359-0.32422-4.9023-0.085938-1.6094-0.14844-5.9961-0.14844-10.102l-0.007812-7.2578h-78.262c-43.043 0-78.211 0.042969-78.148 0.097656 0.0625 0.054688 0.56641 0.4375 1.1211 0.84766 0.55469 0.41406 1.5156 1.1914 2.1328 1.7266 0.62109 0.53516 1.75 1.6172 2.5117 2.4023 0.76172 0.78516 1.8438 2.0039 2.4102 2.707 0.5625 0.70703 1.5391 2.0586 2.168 3.0039 0.62891 0.94531 1.4766 2.332 1.8828 3.082 0.40234 0.75 1.0352 2.0273 1.4023 2.8438 0.36719 0.8125 1.0039 2.4922 1.4141 3.7305 0.41406 1.2383 0.91016 2.9727 1.1094 3.8516 0.19141 0.87891 0.46875 2.3516 0.60156 3.2695 0.12891 0.91797 0.28906 2.4688 0.34766 3.4453 0.0625 0.99219 0.0625 2.7969 0.007812 4.0781-0.0625 1.2656-0.21094 3.0742-0.34766 4.0195-0.12891 0.94531-0.38672 2.3281-0.55078 3.0781-0.16797 0.75-0.48047 1.9805-0.69922 2.7383-0.21875 0.75781-0.67578 2.1094-1.0156 3.0078-0.33984 0.89844-1.0273 2.4648-1.5312 3.4805-0.5 1.0156-1.2188 2.3555-1.5898 2.9766-0.375 0.61719-1.0312 1.6328-1.457 2.25s-1.1562 1.6055-1.625 2.1914c-0.46875 0.58594-1.3867 1.6523-2.0391 2.3711-0.65234 0.71875-1.793 1.8398-2.5391 2.4961-0.74219 0.65625-1.8047 1.5391-2.3555 1.9688-0.55469 0.42969-1.7383 1.2578-2.6328 1.8438-0.89453 0.58594-2.4648 1.4922-3.4961 2.0156-1.0273 0.52344-2.3398 1.1445-2.9102 1.3789-0.57031 0.23438-1.6641 0.64453-2.4297 0.90625-0.76562 0.26562-2.0977 0.66406-2.9688 0.89062-0.86719 0.22656-2.1758 0.51562-2.9023 0.64453-0.72656 0.13281-2.0703 0.31641-2.9844 0.41406-0.99219 0.10547-2.6602 0.16797-4.1484 0.16016-1.3711-0.007813-2.9648-0.058594-3.5469-0.10938zm5.9727-6.2734c0.87891-0.066406 2.2461-0.22266 3.0312-0.35156 0.78906-0.12891 2.1484-0.41406 3.0234-0.64062 0.875-0.22266 2.1758-0.61719 2.8906-0.875 0.71875-0.25781 1.8359-0.71094 2.4883-1.0039 0.65234-0.29297 1.5039-0.70703 1.8945-0.92188 0.39062-0.21094 1.0312-0.57422 1.4219-0.80469 0.39062-0.23047 1.1719-0.72656 1.7344-1.1016s1.5508-1.1016 2.1914-1.6172c0.64453-0.51172 1.6445-1.3828 2.2227-1.9336 0.57812-0.55078 1.5586-1.5859 2.1758-2.3047 0.61719-0.71875 1.5-1.8281 1.9609-2.4727s1.1797-1.7383 1.5977-2.4297c0.41797-0.69141 1.0664-1.8984 1.4453-2.6797 0.375-0.78125 0.92578-2.0625 1.2227-2.8438s0.72656-2.1133 0.95703-2.9609c0.23047-0.84766 0.52734-2.1016 0.65234-2.7852 0.12891-0.68359 0.30469-1.8047 0.39062-2.4883 0.10547-0.76172 0.14844-2.3906 0.14844-4.207-0.007812-2.3984-0.0625-3.2773-0.26562-4.6211-0.14844-0.91406-0.4375-2.4062-0.66406-3.3164-0.22266-0.91406-0.62109-2.2734-0.87891-3.0234-0.26172-0.75-0.66797-1.8164-0.90234-2.3711-0.23828-0.55469-0.77734-1.6719-1.1992-2.4844s-1.1562-2.0664-1.6328-2.7852c-0.47656-0.71875-1.2578-1.8164-1.7383-2.4336-0.48047-0.61719-1.5156-1.7852-2.3008-2.5898-0.78125-0.80469-1.9023-1.8672-2.4883-2.3594-0.58594-0.49219-1.4414-1.1719-1.9023-1.5156-0.46484-0.34375-1.4258-0.98438-2.1367-1.4258-0.71484-0.44141-2.1484-1.2148-3.1914-1.7188s-2.5352-1.1367-3.3164-1.4102c-0.78125-0.26953-1.9219-0.62109-2.5312-0.78125l-1.1094-0.28906h-15.102l-1.4727 0.40234c-0.80859 0.22266-2.1914 0.68359-3.0703 1.0273-0.87891 0.34375-2.293 0.97656-3.1406 1.4102-0.84766 0.43359-2.2344 1.2383-3.082 1.7969-0.84766 0.55469-2.0977 1.4609-2.7852 2.0078-0.68359 0.55078-1.8828 1.6406-2.668 2.4219-0.78125 0.78125-1.875 1.9805-2.4219 2.668-0.54687 0.68359-1.4375 1.9102-1.9766 2.7266-0.53516 0.81641-1.3477 2.1992-1.8047 3.082-0.45312 0.87891-1.082 2.2383-1.3945 3.0195-0.30859 0.78125-0.73828 1.9883-0.94922 2.6797-0.21484 0.69141-0.52344 1.8672-0.6875 2.6094-0.16797 0.74219-0.39453 1.9609-0.51172 2.7109-0.16797 1.082-0.21484 2.0742-0.21484 4.8008 0 2.2812 0.0625 3.7969 0.16797 4.5039 0.085937 0.58594 0.28516 1.6875 0.4375 2.4453 0.14844 0.75781 0.44141 1.9492 0.64453 2.6523 0.21094 0.69922 0.55859 1.7852 0.79297 2.4141s0.69141 1.7266 1.0156 2.4414c0.32422 0.71484 0.86328 1.7812 1.1914 2.3711 0.33203 0.58984 0.94531 1.5977 1.3672 2.2422 0.42187 0.64453 1.1914 1.7109 1.7109 2.3711s1.7773 2.0273 2.7969 3.0391c1.0664 1.0586 2.4531 2.293 3.2734 2.9062 0.78125 0.58594 1.9297 1.3789 2.5469 1.7656 0.62109 0.38281 1.7656 1.0312 2.5469 1.4375s2.0352 0.98047 2.7852 1.2773 1.9766 0.73047 2.7266 0.96094c0.74609 0.23047 2.1328 0.57812 3.0781 0.76953 0.94531 0.19141 2.3047 0.40625 3.0234 0.47266 0.71875 0.066407 1.5156 0.14062 1.7773 0.16406 0.26172 0.019531 0.95313 0.046875 1.5391 0.058594 0.58594 0.011718 1.7852-0.035157 2.668-0.10156zm-3.5547-8.5391c-0.42188-0.054688-1.3047-0.21484-1.9531-0.35156-0.65234-0.14063-1.7422-0.43359-2.4297-0.65625-0.6875-0.22266-1.9492-0.75-2.8125-1.1719-0.86328-0.42187-2.0859-1.1211-2.7266-1.5547-0.63672-0.43359-1.5586-1.1211-2.0469-1.5312-0.48828-0.41016-1.2695-1.1367-1.7305-1.6133-0.46484-0.47656-1.125-1.2148-1.4727-1.6367-0.34766-0.42188-0.99219-1.3164-1.4336-1.9883-0.44141-0.66797-1.125-1.8672-1.5156-2.668-0.39062-0.79688-0.95312-2.168-1.2461-3.0508-0.29297-0.87891-0.66406-2.2656-0.82812-3.082-0.16797-0.81641-0.35938-2.1992-0.43359-3.082-0.085938-0.90234-0.10547-2.1953-0.0625-2.9609 0.042969-0.75 0.14844-1.9219 0.25781-2.6055 0.10547-0.68359 0.28516-1.6719 0.41406-2.1914s0.33594-1.2695 0.45312-1.6602c0.12891-0.39062 0.40234-1.1953 0.62891-1.7812 0.22656-0.58594 0.61328-1.4648 0.85547-1.9492s0.6875-1.2852 0.98047-1.7734c0.29688-0.49219 0.91406-1.3984 1.3672-2.0156 0.45312-0.61719 1.3398-1.6484 1.9648-2.293 0.625-0.64453 1.5352-1.4961 2.0273-1.8906 0.48828-0.39453 1.4297-1.0742 2.0898-1.5117 0.66016-0.4375 1.7539-1.0625 2.4297-1.3906s1.8633-0.81641 2.6484-1.0859c0.78125-0.26953 2.0703-0.62109 2.8633-0.78125s2.0469-0.33594 2.7852-0.39453c0.73828-0.054687 1.8242-0.082031 2.4102-0.054687 0.58594 0.027343 1.5742 0.10156 2.1914 0.17187 0.62109 0.070313 1.8242 0.30078 2.6758 0.51563 0.85156 0.21484 2.0508 0.58984 2.668 0.83594 0.61328 0.24609 1.5391 0.65625 2.0586 0.91406 0.51953 0.25781 1.3711 0.73437 1.8906 1.0586 0.52344 0.32422 1.3789 0.92578 1.9023 1.3359 0.52344 0.41016 1.332 1.0977 1.793 1.5273 0.46484 0.42969 1.2188 1.2227 1.6758 1.7617 0.45703 0.53906 1.2461 1.5938 1.7539 2.3438 0.50391 0.75 1.2578 2.0508 1.6641 2.8945 0.41016 0.83984 0.98047 2.2539 1.2734 3.1406 0.28906 0.88672 0.63672 2.1719 0.77344 2.8555 0.12891 0.68359 0.30078 1.6953 0.36719 2.25 0.0625 0.55078 0.12891 1.8164 0.12891 2.8086s-0.085938 2.4336-0.19141 3.2031-0.33594 2.0391-0.52344 2.8203c-0.19141 0.78125-0.53516 1.957-0.77344 2.6055-0.23438 0.65234-0.74609 1.8281-1.1328 2.6172-0.38672 0.78906-1.0508 1.9492-1.4727 2.5781-0.42188 0.62891-1.1016 1.5586-1.5117 2.0625-0.41016 0.50391-1.1758 1.3438-1.6953 1.8672-0.52344 0.52344-1.4492 1.3359-2.0547 1.8086-0.60938 0.46875-1.5977 1.1562-2.1914 1.5273-0.59766 0.37109-1.5664 0.89844-2.1602 1.1758-0.58984 0.27734-1.6289 0.69922-2.3125 0.93359-0.67969 0.23828-1.6719 0.53516-2.1992 0.66016-0.52734 0.12891-1.5156 0.30859-2.1914 0.40625-0.73047 0.10547-2.0234 0.16797-3.1836 0.16406-1.0742-0.007813-2.3008-0.058594-2.7266-0.11328zm5.7969-6.4531c0.54688-0.10547 1.4297-0.32422 1.957-0.48828 0.52734-0.16406 1.543-0.58203 2.2617-0.92578 0.71875-0.34766 1.7812-0.96875 2.3672-1.3828 0.58594-0.41406 1.5469-1.2344 2.1367-1.8203 0.58984-0.58594 1.4336-1.5469 1.875-2.1328 0.4375-0.58594 1.1445-1.7578 1.5625-2.6055 0.41797-0.84766 0.90234-1.9609 1.0742-2.4805 0.16797-0.51563 0.41016-1.3945 0.53125-1.957 0.12891-0.55859 0.28516-1.6289 0.35938-2.3789 0.085938-0.79297 0.10547-1.9102 0.0625-2.668-0.042969-0.71875-0.21094-1.9492-0.36328-2.7383-0.14844-0.78906-0.45312-1.9102-0.66016-2.4883-0.21094-0.57812-0.63281-1.5781-0.95312-2.2188-0.32031-0.64062-0.80078-1.4922-1.0742-1.8945-0.26953-0.40234-0.80469-1.1133-1.1797-1.5781-0.37891-0.46484-1.1016-1.2305-1.6094-1.6953-0.50391-0.46484-1.375-1.1562-1.9297-1.5352s-1.4883-0.92969-2.0742-1.2227c-0.58594-0.29297-1.5547-0.69922-2.1523-0.89844-0.59766-0.19922-1.5547-0.45703-2.1328-0.57031-0.73828-0.14453-1.625-0.21094-3.0039-0.21094-1.4141-0.003906-2.2461 0.054688-3.0078 0.21094-0.57812 0.11719-1.4844 0.34766-2.0156 0.51172-0.52734 0.16406-1.5508 0.58984-2.2656 0.94531-0.71875 0.35547-1.7969 1-2.3984 1.4297-0.60156 0.42969-1.6484 1.3516-2.3164 2.0469-0.67187 0.69531-1.5547 1.7656-1.9648 2.3789-0.41016 0.61328-0.97656 1.5742-1.2578 2.1367-0.28516 0.5625-0.69922 1.5586-0.92578 2.2109-0.23047 0.65234-0.53906 1.7695-0.6875 2.4766-0.23438 1.0938-0.27344 1.6406-0.27344 3.6016 0 1.7578 0.042968 2.5938 0.21875 3.4961 0.12891 0.65234 0.42187 1.8008 0.66797 2.5508s0.6875 1.8477 0.98047 2.4336c0.29688 0.58984 0.87109 1.5742 1.2812 2.1914 0.47656 0.72266 1.2539 1.6289 2.1719 2.5469 0.84766 0.84375 1.8398 1.6992 2.4375 2.0938 0.55469 0.36719 1.4883 0.90625 2.0742 1.1992 0.58594 0.29297 1.5664 0.69922 2.1758 0.90234s1.5703 0.44922 2.1328 0.54297 1.2344 0.19531 1.4961 0.22266c0.26172 0.027344 1.1406 0.03125 1.957 0.007813 0.81641-0.023438 1.9297-0.12891 2.4805-0.23438zm207.08-30.094c0.53125-1.2383 1.5664-3.5586 2.3008-5.1562 0.73828-1.5977 2.0273-4.2773 2.8672-5.957 0.83984-1.6797 2.1367-4.1641 2.8789-5.5234 0.74219-1.3594 1.9766-3.5312 2.7422-4.8281s2.1953-3.6094 3.1758-5.1445c0.98047-1.5312 2.1719-3.2969 2.6445-3.9219 0.47266-0.625 1.3633-1.6719 1.9883-2.3281 0.62109-0.65234 1.668-1.6367 2.3281-2.1797 0.66016-0.54297 1.7148-1.3438 2.3516-1.7734 0.63672-0.42969 1.4727-0.90234 1.8555-1.0469 0.38672-0.14453 1.1016-0.33984 1.5898-0.4375 0.48828-0.09375 1.6875-0.20312 2.668-0.24219 0.97656-0.039062 3.1641-0.007812 4.8594 0.070313 1.6953 0.078125 4.5469 0.24609 6.3398 0.375 1.793 0.12891 4.75 0.36719 6.5781 0.52734 1.8242 0.16016 4.25 0.37109 5.3906 0.46875 1.1406 0.097656 4.207 0.28516 6.8125 0.41797 2.6055 0.13281 5.8867 0.32422 7.2891 0.42578 1.4023 0.10156 3.375 0.28906 4.3828 0.41797 1.0117 0.12891 2.4492 0.37109 3.1992 0.53906s1.8438 0.46484 2.4297 0.66016c0.58594 0.19531 1.6016 0.60938 2.2578 0.91406 0.65234 0.30859 1.707 0.88281 2.3359 1.2812 0.62891 0.39453 1.6641 1.1094 2.2969 1.5859 0.63281 0.47656 1.707 1.4023 2.3906 2.0547 0.68359 0.65234 1.7266 1.7539 2.3203 2.4453s1.3828 1.6797 1.75 2.1914c0.36719 0.51563 1.0078 1.4688 1.4141 2.1211 0.41016 0.65234 1.2031 2.0898 1.7656 3.1992s1.3594 2.8125 1.7695 3.793c0.41016 0.97656 1.1641 2.9258 1.6719 4.3242 0.50781 1.4023 1.1172 3.1875 1.3555 3.9688 0.23828 0.78125 0.69141 2.4297 1.0117 3.6562 0.31641 1.2305 0.59375 2.25 0.61328 2.2656 0.019532 0.015624 0.48438-0.039063 1.0273-0.12891 0.54688-0.089843 1.9609-0.26953 3.1406-0.40234 1.1797-0.13281 3.082-0.32422 4.2227-0.42969 1.457-0.13281 4.1367-0.20703 9.0117-0.25l6.9375-0.066406 0.12109-0.60547c0.066406-0.33203 0.47656-1.9648 0.90625-3.6289 0.43359-1.6602 1.1367-4.5664 1.5625-6.457 0.42969-1.8906 0.99219-4.4766 1.2539-5.7461 0.26172-1.2734 0.6875-3.4062 0.94531-4.7422 0.25781-1.3359 0.70703-3.8672 1-5.6289 0.28906-1.7578 0.63281-4.0273 0.76172-5.0352 0.12891-1.0117 0.34375-3.0117 0.47266-4.4453 0.13281-1.4336 0.30859-3.6484 0.39062-4.918 0.097656-1.4688 0.15234-4.9609 0.15234-9.5977 0-4.5586-0.058593-8.2422-0.15234-9.8359-0.085938-1.4023-0.25781-3.9336-0.38672-5.6289-0.12891-1.6953-0.36719-4.4141-0.53125-6.043-0.16406-1.6211-0.48438-4.5547-0.71484-6.5078-0.23047-1.957-0.76172-6.1289-1.1836-9.2734-0.41797-3.1484-0.89062-6.5586-1.0547-7.5859-0.16016-1.0234-0.55859-3.168-0.89062-4.7578-0.47266-2.2773-0.67578-3.0312-0.95312-3.5234-0.19531-0.34375-0.32422-0.70312-0.28516-0.79688 0.035156-0.09375-0.65234-1.4492-1.5625-3.0547-0.89453-1.5859-2.3438-4.082-3.2227-5.5508-0.875-1.4648-2.4609-3.9727-3.5234-5.5703-1.0586-1.5977-2.957-4.3438-4.2109-6.1016-1.2578-1.7578-2.8477-3.9453-3.5312-4.8594-0.6875-0.91406-1.832-2.4062-2.5469-3.3164-0.71484-0.91406-2.0625-2.5703-2.9922-3.6875-0.92969-1.1172-2.4531-2.875-3.3828-3.9102-0.92969-1.0352-3.1328-3.3242-4.8945-5.0898-1.7617-1.7617-4.1914-4.1094-5.3984-5.2148-1.207-1.1016-3.875-3.5039-5.9258-5.3398-2.0508-1.8359-4.3398-3.8281-5.0898-4.4297-0.75-0.59766-1.9492-1.4766-2.668-1.9492-0.71484-0.47266-1.9688-1.2422-2.7852-1.7148-0.8125-0.46875-2.2266-1.3516-3.1406-1.9609-0.91016-0.60547-2.1914-1.4102-2.8438-1.7812-0.64844-0.375-2.0352-1.1172-3.0781-1.6484-1.043-0.53125-2.7148-1.3281-3.7109-1.7695-0.99609-0.44141-2.7812-1.1758-3.9648-1.6328-1.1797-0.45312-3.1641-1.1641-4.4062-1.5781-1.2422-0.41406-3.4023-1.082-4.8047-1.4844s-3.8281-1.043-5.3906-1.4258c-1.5625-0.38281-4.3086-0.98828-6.1016-1.3438-1.793-0.35547-4.3242-0.8125-5.6289-1.0078-1.3047-0.19531-3.8086-0.51953-5.5703-0.71484-1.7578-0.19531-4.2109-0.4375-5.4492-0.53516s-3.1562-0.23438-4.2656-0.30078-3.9062-0.17969-6.2227-0.24219c-2.8867-0.082032-5.543-0.082032-8.4727 0.007812-2.3477 0.070312-5.3594 0.20703-6.6953 0.30469-1.3359 0.097656-3.1758 0.25781-4.0898 0.35547-0.91406 0.097656-2.8867 0.33984-4.3828 0.53516-1.5 0.19531-3.3711 0.46094-4.1602 0.58594-0.78906 0.12891-1.5078 0.25391-1.6016 0.28516-0.085937 0.03125-1.0977 0.14062-2.2383 0.24219-1.1406 0.10156-2.2734 0.21484-2.5195 0.25l-0.44531 0.066406v72.609c0 52.305 0.042969 72.789 0.12891 73.258 0.10547 0.5 0.0625 1.8438-0.10547 5.8555-0.12891 2.8633-0.30859 6.8086-0.38281 8.7617-0.085937 2.1484-0.10547 5.1484-0.0625 7.582 0.042969 2.2148 0.12891 5.3086 0.19141 6.8711s0.16797 3.5898 0.23438 4.5039c0.0625 0.91406 0.14844 1.9844 0.19141 2.3828l0.0625 0.72266 2.3242 0.082031c1.2773 0.042969 3.7383 0.18359 5.4648 0.30859s5.168 0.33594 7.6445 0.46875c2.4766 0.13281 4.9297 0.25781 5.4492 0.27734 0.51953 0.019531 1.5039 0.035156 2.1836 0.03125l1.2383-0.007813 0.96484-2.25zm3.3008-92.32c-0.26953-0.09375-0.71484-0.37109-0.99219-0.60937-0.27734-0.23828-0.62891-0.70313-0.78516-1.0312-0.19141-0.40234-0.28125-0.81641-0.28125-1.2578 0-0.36328 0.085938-0.90625 0.19141-1.2109 0.10547-0.30078 0.40234-0.76953 0.66406-1.0391s0.72266-0.60547 1.0273-0.74609c0.55078-0.25391 0.57031-0.25391 10.328-0.25391h9.7773l0.62109 0.28125c0.33984 0.15625 0.8125 0.49219 1.0469 0.75391s0.51172 0.66797 0.61328 0.90234c0.10547 0.23828 0.19141 0.77734 0.19141 1.2031 0.003906 0.53906-0.0625 0.93359-0.23828 1.3047-0.12891 0.29297-0.41797 0.71094-0.63281 0.92187-0.21484 0.21484-0.60938 0.50781-0.87891 0.65234l-0.49219 0.26172-9.8359 0.019531c-8.3945 0.019532-9.9062-0.003906-10.324-0.15234zm83.672-13.441c-9.4492-0.24609-20.621-0.53125-24.824-0.64062-4.2031-0.10547-10.734-0.27344-14.516-0.36719s-13.219-0.33594-20.973-0.53125c-7.7539-0.19531-17.328-0.4375-21.27-0.53516-5.7227-0.14453-7.2812-0.21875-7.7227-0.36328-0.30469-0.097656-0.78516-0.38672-1.0703-0.63672-0.28516-0.25-0.66797-0.73438-0.85156-1.0742-0.28906-0.53125-0.35156-0.81641-0.44141-2.0547-0.0625-0.79297-0.39844-7.0117-0.75391-13.82-0.35938-6.8086-1.0234-19.43-1.4766-28.047-0.79297-14.969-0.82031-15.688-0.63672-16.262 0.10547-0.33203 0.375-0.8125 0.59375-1.0664 0.21875-0.25781 0.6875-0.60938 1.043-0.78125 0.56641-0.27734 0.76562-0.30859 1.6836-0.28516 0.58594 0.015626 1.8516-0.085937 2.8828-0.23047 1.0078-0.14062 2.7695-0.28906 3.9102-0.32812 1.207-0.042969 2.8555-0.015625 3.9453 0.066406 1.0273 0.078125 3.8008 0.34766 6.1602 0.60547 2.3594 0.25781 5.1406 0.54297 6.1836 0.64062 1.043 0.097656 2.6953 0.23047 3.6719 0.30078 0.97656 0.070312 3.6719 0.20703 5.9844 0.30078 2.3125 0.097657 5.0859 0.23047 6.1602 0.29688 1.0742 0.066406 2.8359 0.20312 3.9102 0.30078 1.0742 0.097656 2.6484 0.25781 3.4961 0.35156 0.84766 0.09375 2.3125 0.28125 3.2578 0.41797 0.94531 0.13281 2.3594 0.34766 3.1406 0.48047 0.78125 0.13281 2.0898 0.37109 2.9023 0.53516 0.81641 0.16406 2.418 0.53125 3.5625 0.81641 1.1445 0.28516 2.957 0.78516 4.0273 1.1133 1.0703 0.32422 2.4766 0.78125 3.1211 1.0156s1.7578 0.66406 2.4766 0.95703c0.71484 0.29297 2.0859 0.92969 3.043 1.4141 0.95703 0.48438 2.4062 1.2969 3.2148 1.8047 0.80859 0.50781 2.0859 1.3789 2.8359 1.9336 0.75 0.55859 1.9219 1.4805 2.6055 2.0508 0.68359 0.57031 2.0156 1.75 2.9609 2.6211 0.94531 0.86719 2.5469 2.4258 3.5586 3.457 1.0117 1.0312 2.4258 2.4883 3.1406 3.2422 0.71484 0.75 2.1016 2.2422 3.082 3.3164s2.4062 2.6602 3.168 3.5234 2.1719 2.5156 3.1367 3.6719c0.96484 1.1562 2.2617 2.7695 2.8867 3.5859 0.625 0.81641 1.4922 1.9766 1.9258 2.5781 0.43359 0.60156 1.2461 1.7773 1.8047 2.6055 0.55859 0.83203 1.5078 2.3359 2.1094 3.3477s1.6211 2.7695 2.2617 3.9102c0.64062 1.1406 1.7852 3.3008 2.543 4.8008 0.75781 1.5 1.6133 3.2578 1.8984 3.9102 0.42188 0.96484 0.51562 1.3047 0.5 1.8359-0.007813 0.35938-0.015625 1.2539-0.019531 1.9883 0 1.0625-0.046875 1.4453-0.23047 1.8555-0.12891 0.28516-0.44922 0.73047-0.71875 0.99219s-0.73828 0.55859-1.0391 0.66406c-0.43359 0.14844-1.0273 0.18359-2.8086 0.17188-1.2422-0.007813-9.9922-0.21484-19.441-0.46094zm17.242-6c0-0.042968-0.58984-1.2266-1.3125-2.625-0.72266-1.3984-1.9766-3.7148-2.7852-5.1406-0.8125-1.4258-1.832-3.1641-2.2695-3.8633s-1.2695-1.9609-1.8516-2.8086c-0.58203-0.84766-1.6992-2.3867-2.4883-3.4219-0.78516-1.0352-2.2344-2.8477-3.2227-4.0273-0.98438-1.1797-2.5039-2.9453-3.3711-3.9219-0.87109-0.97656-2.4375-2.7109-3.4844-3.8516s-3.4219-3.5977-5.2812-5.4648c-1.8594-1.8633-4.0703-3.9922-4.918-4.7266-0.84766-0.73438-2.2344-1.8555-3.082-2.4883-0.84766-0.63281-2.1289-1.5156-2.8438-1.9648-0.71875-0.44922-2.0234-1.1719-2.9023-1.6094s-2.1328-1.0078-2.7852-1.2656c-0.65234-0.25781-2.1719-0.78906-3.3789-1.1836-1.207-0.39453-2.9102-0.90234-3.793-1.1367-0.87891-0.23047-2.3242-0.58203-3.2109-0.77734-0.88672-0.19531-2.3906-0.49219-3.3477-0.65625-0.95312-0.16406-2.7227-0.43359-3.9297-0.59766-1.207-0.16406-3.2188-0.40234-4.4727-0.53125-1.2539-0.12891-3.5352-0.3125-5.0664-0.41016s-4.2227-0.23438-5.9844-0.30078c-1.7578-0.066407-4.0781-0.17969-5.1562-0.24219-1.0742-0.066406-2.8867-0.19922-4.0273-0.30078-1.1406-0.097656-4.2852-0.42578-6.9922-0.72266-3.7773-0.41797-5.5312-0.55469-7.5586-0.60156-1.6602-0.039062-3.207-0.003906-4.1602 0.085938-0.83594 0.082031-1.5781 0.18359-1.6445 0.22266-0.085938 0.054687 0.29297 8.0039 1.2422 25.906 0.75 14.207 1.3789 25.844 1.3945 25.859 0.015626 0.015625 4.1562 0.13672 9.2031 0.26562 5.0469 0.12891 12.371 0.31641 16.281 0.41406 3.9102 0.097656 10.254 0.25781 14.102 0.35547 3.8438 0.097656 13.309 0.33594 21.031 0.53125 7.7227 0.19531 17.32 0.4375 21.328 0.53906 4.0078 0.10156 9.875 0.25391 13.035 0.33984 3.1602 0.085938 6.1875 0.16016 6.7266 0.16797 0.53906 0.007813 0.97656-0.019531 0.97656-0.0625zm29.113 109.39c0.67969-0.10156 1.6992-0.31641 2.2656-0.48047 0.56641-0.16406 1.7227-0.63672 2.5703-1.0547s1.9922-1.0742 2.5469-1.4609 1.4688-1.1094 2.0312-1.6016c0.5625-0.49219 1.4609-1.3906 2-2 0.53516-0.60547 1.3438-1.5938 1.793-2.1914 0.44922-0.60156 1.1953-1.6914 1.6562-2.4297 0.46094-0.73828 1.3867-2.457 2.0586-3.8281 0.67188-1.3672 1.4609-3.1328 1.7539-3.918 0.29297-0.78516 0.71875-2.0898 0.94922-2.9023 0.23047-0.8125 0.52734-2.0078 0.66016-2.6602 0.13281-0.65234 0.32422-1.7969 0.42578-2.5469 0.10547-0.75 0.21875-2.4883 0.25781-3.8633 0.042968-1.5508 0.019531-3.1484-0.070313-4.207-0.078125-0.9375-0.16797-1.8633-0.20312-2.0586l-0.0625-0.35547-7.25-0.007812c-3.9922-0.003907-7.6875-0.058594-8.2266-0.125-0.53906-0.0625-0.97656-0.085938-0.97656-0.046875 0 0.039062-0.10938 1.2422-0.24219 2.6719-0.13281 1.4297-0.375 3.5859-0.53516 4.793-0.16406 1.207-0.53906 3.6328-0.83203 5.3906-0.29688 1.7578-0.85938 4.8242-1.25 6.8125-0.39062 1.9883-1.0234 5.0273-1.4023 6.7539-0.38281 1.7266-0.98828 4.3672-1.3477 5.8672s-0.81641 3.3398-1.0156 4.0898-0.35938 1.4023-0.35938 1.4531c0 0.046875 0.35156 0.089844 0.78516 0.089844 0.42969 0 1.3398-0.082031 2.0234-0.18359zm-168.23-28.137v-1.7773h-295.05v3.5547h295.05zm0-8.6484v-0.47266h2.9609l0.003907-84.906v-84.902h-303.35v169.8h5.332v0.94531h295.05zm187.51-7.1992c0.11328-0.066406 0.03125-0.52734-0.36719-1.9844-0.28516-1.043-0.99219-3.3086-1.5742-5.0352-0.58203-1.7266-1.375-3.9766-1.7656-5.0039-0.39062-1.0234-0.75781-1.9414-0.80859-2.0391-0.070313-0.12891-0.48438 0.44531-1.5117 2.0977-0.77734 1.25-1.8867 3.1016-2.4609 4.1094-0.57812 1.0117-1.4961 2.7148-2.043 3.793-0.54688 1.0742-1.1836 2.418-1.418 2.9844s-0.42578 1.0586-0.42578 1.0938 0.78516 0.082031 1.7461 0.10938c0.96094 0.027344 3.7109 0.027344 6.1133 0.003906 2.4023-0.023437 4.4336-0.082031 4.5156-0.13281zm-10.012-17.566c1.1211-1.793 2.1133-3.3438 2.207-3.4453 0.09375-0.10547 0.16797-0.24219 0.16797-0.3125 0-0.066406-0.6875-1.6367-1.5234-3.4844-0.83984-1.8477-2.043-4.4805-2.6719-5.8516-0.63281-1.3672-2.1133-4.4492-3.2969-6.8438-1.1797-2.3945-2.168-4.332-2.1914-4.3086-0.027343 0.027344 0.19531 2.0117 0.49219 4.4141 0.29688 2.4023 0.67188 5.6719 0.83594 7.2695 0.16406 1.5977 0.35156 3.4883 0.41406 4.207s0.19531 2.3438 0.29688 3.6133c0.097656 1.2695 0.26172 3.832 0.35938 5.6875 0.097656 1.8594 0.17969 4.0273 0.17969 4.8203s0.035156 1.5273 0.070313 1.6289c0.046875 0.125 0.5-0.53516 1.3477-1.9766 0.70312-1.1875 2.1914-3.6289 3.3125-5.4219z"/>
</svg>
